<svg id="logo_full_version" xmlns="http://www.w3.org/2000/svg" xmlns:xlink="http://www.w3.org/1999/xlink" viewBox="0 0 234.7 104.4"><style>.st0{fill:#bd1d2d}.st1{fill:#3d111a}.st2{fill:#3f0e19}.st3{fill:#bc1d2c}.st4{clip-path:url(#SVGID_2_);fill:url(#SVGID_3_)}.st5{fill:url(#SVGID_4_)}.st5,.st6,.st7,.st8,.st9{clip-path:url(#SVGID_2_)}.st6{fill:url(#SVGID_5_)}.st7{fill:url(#SVGID_6_)}.st8{fill:url(#SVGID_7_)}.st9{fill:url(#SVGID_8_)}</style><path class="st0" d="M17.2 82.7h1.1v4.6h-1.1zm101.1-1.2h1.1v7.1h-1.1z"/><path class="st1" d="M118.3 85h1.1v3.6h-1.1z"/><path class="st0" d="M127.6 75.4h1.1v19.4h-1.1z"/><path class="st1" d="M127.6 85h1.1v9.7h-1.1z"/><path class="st0" d="M137 78h1.1v14H137z"/><path class="st1" d="M137 84.9h1.1v7.2H137z"/><path class="st0" d="M221.3 80.9h1.1v8.3h-1.1z"/><path class="st1" d="M221.3 85h1.1v4.2h-1.1z"/><path class="st0" d="M146.4 71.7h1.1v26.6h-1.1z"/><path class="st1" d="M146.4 84.9h1.1v13.5h-1.1z"/><path class="st0" d="M155.7 68.2h1.1v33.7h-1.1z"/><path class="st1" d="M155.7 85h1.1v16.8h-1.1z"/><path class="st0" d="M165.1 73.6h1.1v22.8h-1.1z"/><path class="st1" d="M165.1 85h1.1v11.4h-1.1z"/><path class="st0" d="M174.5 73.8h1.1v22.6h-1.1z"/><path class="st1" d="M174.5 84.9h1.1v11.4h-1.1z"/><path class="st0" d="M211.9 79.1h1.1V91h-1.1z"/><path class="st1" d="M211.9 85h1.1v6h-1.1z"/><path class="st0" d="M230.7 83.3h1.1v3.4h-1.1z"/><path class="st1" d="M230.7 85h1.1v1.7h-1.1z"/><path class="st0" d="M183.8 77.5h1.1v15h-1.1z"/><path class="st1" d="M183.8 85h1.1v7.5h-1.1z"/><path class="st0" d="M193.2 80.5h1.1v9h-1.1z"/><path class="st1" d="M193.2 84.9h1.1v4.6h-1.1z"/><path class="st0" d="M202.6 82.1h1.1V88h-1.1z"/><path class="st1" d="M202.6 84.9h1.1V88h-1.1z"/><path class="st0" d="M99.5 82.4h1.1v5.2h-1.1z"/><path class="st1" d="M99.5 85h1.1v2.6h-1.1z"/><path class="st0" d="M108.9 82.9h1.1v4.6h-1.1z"/><path class="st1" d="M108.9 85h1.1v2.5h-1.1z"/><path class="st0" d="M90.2 79.9h1.1v10.2h-1.1z"/><path class="st1" d="M90.2 84.9h1.1v5.2h-1.1z"/><path class="st0" d="M80.8 81.3h1.1v7.4h-1.1z"/><path class="st1" d="M80.8 84.9h1.1v3.8h-1.1z"/><path class="st0" d="M71.4 78h1.1v14.1h-1.1z"/><path class="st1" d="M71.4 84.9h1.1V92h-1.1z"/><path class="st0" d="M62.1 76.1h1.1v17.8h-1.1z"/><path class="st1" d="M62.1 84.9h1.1v9h-1.1z"/><path class="st0" d="M52.7 79h1.1v12.1h-1.1z"/><path class="st1" d="M52.7 84.9h1.1V91h-1.1z"/><path class="st0" d="M43.3 79.1h1.1V91h-1.1z"/><path class="st1" d="M43.3 84.9h1.1V91h-1.1z"/><path class="st0" d="M34 81.1h1.1v8H34z"/><path class="st1" d="M34 84.9h1.1V89H34z"/><path class="st0" d="M24.6 82.7h1.1v4.8h-1.1z"/><path class="st1" d="M24.6 85h1.1v2.4h-1.1zm-7.4 0h1.1v2.3h-1.1z"/><path class="st2" d="M67.8 30.8c.3-.3.5-.7.6-1 .1-.3.2-.4.4-.4.1 0 .2.1.3.2.1.4.2 1.3.4 2.6l.4 3.3c0 .2-.1.3-.4.3-.1 0-.3-.1-.4-.4-.6-1.5-1.6-2.8-2.8-3.9-1.2-1-2.6-1.5-4-1.5s-2.5.4-3.2 1.3c-.7.9-1.1 1.8-1.1 2.7 0 1.2.4 2.1 1.2 2.7.8.6 2.4 1.3 4.9 2.1 1.8.6 3.2 1.1 4.1 1.6.9.5 1.7 1.3 2.3 2.2.6 1 .9 2 .9 3.1 0 1.9-.8 3.5-2.3 5-1.5 1.5-3.4 2.2-5.7 2.2-2 0-4.1-.6-6.1-1.9-.4.3-.7.7-.8 1.2-.1.4-.2.6-.5.6-.2 0-.3-.2-.4-.7-.1-.5-.3-2.8-.5-6.9 0-.1.2-.2.4-.2s.3.1.4.4c1.8 4.6 4.4 6.9 7.6 6.9 1.6 0 2.9-.5 3.8-1.5.9-1 1.4-2.1 1.4-3.4 0-.9-.2-1.7-.7-2.4-.5-.7-1.1-1.3-2-1.8s-2.1-1-3.8-1.5c-2.2-.7-3.8-1.4-4.6-2-.8-.6-1.4-1.4-1.8-2.2-.4-.8-.6-1.6-.6-2.3 0-1.6.7-3 2.1-4.2 1.4-1.2 3.2-1.8 5.2-1.8.8 0 1.6.1 2.5.4 1 .3 1.9.7 2.8 1.2zm9.3 13.7c0 .6-.1 1.1-.1 1.4 0 1.7.5 3.1 1.5 4.3s2.2 1.7 3.7 1.7c1.4 0 2.7-.6 4-1.7.4-.3.6-.5.7-.5.2 0 .3.2.3.5-.4.8-1.2 1.5-2.3 2.1-1.1.6-2.3.9-3.6.9-2 0-3.6-.7-5-2.1-1.4-1.4-2-3.2-2-5.4 0-2.3.7-4.3 2.2-5.8 1.5-1.5 3.1-2.3 4.8-2.3 1.6 0 3 .6 4.3 1.8 1.3 1.2 1.9 2.6 1.9 4.3 0 .2 0 .4-.1.5s-.5.2-1.4.2l-8.9.1zm0-1c1.5.1 3 .1 4.5.1l.9-.1c.7 0 1.3-.2 1.6-.4.4-.3.6-.7.6-1.3 0-1-.3-1.9-1-2.6-.7-.7-1.5-1.1-2.4-1.1-.9 0-1.7.4-2.6 1.3-.8.8-1.3 2.2-1.6 4.1zm17.3-5.9c.3.7.5 1.9.5 3.5.7-1.2 1.5-2 2.4-2.6.9-.6 1.9-.9 2.9-.9.8 0 1.6.2 2.3.5.8.3 1.3.8 1.7 1.6.4.7.6 2 .6 3.8l-.1 6c0 1.1.1 1.8.3 2.1.2.3.6.5 1.2.7.4.1.6.2.6.4s-.1.3-.3.3h-.2c-.5-.1-1.3-.2-2.4-.2-1 0-2 0-3.1.1-.4 0-.7-.1-.7-.3 0-.1.1-.2.4-.3.7-.1 1.1-.3 1.3-.4.2-.2.3-.4.4-.6.1-.3.2-1.1.2-2.6.1-1.5.1-2.6.1-3.5 0-2.5-.3-4.1-.9-5-.6-.8-1.4-1.2-2.3-1.2-1.4 0-2.5.7-3.4 2.2-.9 1.5-1.4 4-1.4 7.5 0 1.6.1 2.6.3 3 .2.4.7.7 1.6.8.3 0 .4.1.4.3 0 .2-.1.2-.4.2l-.9-.1h-4.7c-.5 0-.8-.1-.8-.3 0-.2.3-.4.8-.5.5-.1.9-.3 1.1-.6.2-.3.3-1.2.4-2.7s.1-3.4.1-5.6c0-2.1-.1-3.4-.4-3.9-.3-.5-.7-.8-1.2-.9-.5-.1-.7-.3-.7-.4 0-.2.2-.3.5-.3H92c.2-.1 1-.1 2.4-.1zm20.7 1.5c-.2 2.6-.2 5.2-.2 7.7 0 1.9.2 3.2.7 3.8s1.1.9 2 .9c.6 0 1.3-.2 2.1-.7.3-.2.4-.2.5-.2.2 0 .2.1.2.2 0 .3-.4.7-1.3 1.3s-1.9.9-3.1.9c-1.2 0-2.1-.4-2.7-1.3s-.9-2.1-.9-3.8c0-1.7.1-4.7.3-8.9-.1 0-.6-.1-1.7-.1l-1.1-.1c-.3 0-.4-.1-.4-.3 0-.2.1-.3.4-.4.5-.2 1.3-.7 2.4-1.6 1.1-.9 1.8-2.1 2-3.6 0-.4.2-.6.4-.6s.3.2.3.5v.3c0 .5-.1 1-.1 1.6v2.8l3.9-.1c.7 0 1 .1 1 .2 0 .5-.1.9-.3 1-.3.3-1.9.4-4.4.5zm7.2 6.2c0-2.1.8-3.9 2.3-5.5 1.5-1.6 3.3-2.4 5.5-2.4 2.1 0 3.8.7 5.3 2.1 1.5 1.4 2.2 3.2 2.2 5.3 0 2.1-.8 4-2.3 5.7-1.6 1.6-3.4 2.4-5.5 2.4s-3.8-.7-5.3-2.2c-1.4-1.4-2.2-3.2-2.2-5.4zm2.9-.1c0 2 .5 3.7 1.4 5.1.9 1.3 2.1 2 3.5 2 1.3 0 2.4-.6 3.3-1.9 1-1.3 1.4-2.9 1.4-5 0-1.9-.5-3.5-1.4-5s-2.1-2.2-3.6-2.2c-1.4 0-2.5.7-3.4 2-.8 1.3-1.2 3-1.2 5zm28.1-14.4c.3-.3.5-.7.6-1 .1-.3.2-.4.4-.4.1 0 .2.1.3.2.1.4.2 1.3.4 2.6l.4 3.3c0 .2-.1.3-.4.3-.1 0-.3-.1-.4-.4-.6-1.5-1.6-2.8-2.8-3.9-1.2-1-2.6-1.5-4-1.5s-2.5.4-3.2 1.3c-.7.9-1.1 1.8-1.1 2.7 0 1.2.4 2.1 1.2 2.7.8.6 2.4 1.3 4.9 2.1 1.8.6 3.2 1.1 4.1 1.6.9.5 1.7 1.3 2.3 2.2.6 1 .9 2 .9 3.1 0 1.9-.8 3.5-2.3 5-1.5 1.5-3.4 2.2-5.7 2.2-2 0-4.1-.6-6.1-1.9-.4.3-.7.7-.8 1.2-.1.4-.2.6-.5.6-.2 0-.3-.2-.4-.7-.1-.5-.3-2.8-.5-6.9 0-.1.2-.2.4-.2s.3.1.4.4c1.8 4.6 4.4 6.9 7.6 6.9 1.6 0 2.9-.5 3.8-1.5.9-1 1.4-2.1 1.4-3.4 0-.9-.2-1.7-.7-2.4-.5-.7-1.1-1.3-2-1.8s-2.1-1-3.8-1.5c-2.2-.7-3.8-1.4-4.6-2-.8-.6-1.4-1.4-1.8-2.2-.4-.8-.6-1.6-.6-2.3 0-1.6.7-3 2.1-4.2 1.4-1.2 3.2-1.8 5.2-1.8.8 0 1.6.1 2.5.4 1 .3 1.8.7 2.8 1.2zm6.3 14.8c0-2.2.7-4.1 2.1-5.7 1.4-1.6 3.1-2.4 5.1-2.4 1.3 0 2.5.3 3.7.9s1.8 1.4 1.8 2.4c0 .4-.1.7-.3 1s-.5.4-.8.4c-.7 0-1.2-.5-1.5-1.6-.5-1.6-1.5-2.4-2.9-2.4-1.3 0-2.4.6-3.1 1.7-.7 1.2-1.1 2.7-1.1 4.6 0 2.2.5 4 1.5 5.5s2.2 2.1 3.5 2.1c.9 0 1.8-.4 2.6-1.1.8-.7 1.3-1.5 1.5-2.6.1-.3.2-.5.4-.5s.3.1.3.3c0 1.2-.5 2.2-1.6 3.3-1.1 1-2.5 1.5-4.3 1.5-2 0-3.6-.7-4.9-2.2-1.4-1.5-2-3.3-2-5.2zm20.4-4.1c.7-1.3 1.5-2.3 2.4-3 .8-.7 1.7-1 2.7-1 .7 0 1.2.2 1.7.7.5.5.7 1 .7 1.6 0 1.1-.5 1.7-1.4 1.7-.4 0-.8-.3-1.1-.9-.4-.8-.9-1.2-1.5-1.2s-1.2.3-1.8 1c-.6.7-1 1.4-1.3 2.2-.2.8-.3 2.4-.3 4.9 0 2.3.1 3.6.3 4 .2.3.7.6 1.5.6.2 0 .3.1.3.2 0 .2-.3.4-.8.4h-5.7c-.4 0-.6-.1-.6-.3 0-.2.3-.3.8-.3.7 0 1.2-.3 1.4-.7s.3-1.9.3-4.6c0-3.9-.1-6.2-.2-7-.2-.8-.8-1.2-1.8-1.2-.4 0-.6-.1-.6-.3 0-.1 0-.2.1-.2.1-.1.6-.1 1.6-.2l3.3-.2c-.1.6-.1 1.9 0 3.8zm14.7-4v12.6c0 .9.1 1.4.4 1.6.3.2.7.4 1.3.4.6 0 1 .2 1 .4s-.1.3-.4.3h-.3c-1.1-.1-2.1-.2-3.1-.2-1.5 0-2.6 0-3.1.1h-.4c-.3 0-.4-.1-.4-.3s.3-.4 1-.4c.7-.1 1.1-.2 1.3-.4.2-.2.3-.8.3-1.8l.1-7.3c0-2-.1-3.1-.4-3.5-.3-.4-.9-.6-1.7-.6-.3 0-.4-.1-.4-.3 0-.1 0-.2.1-.2.1-.1.8-.1 2.1-.2 1.2-.1 2.1-.2 2.6-.2zm-2-8.7c.4 0 .9.2 1.2.5s.5.7.5 1.1c0 .5-.1.9-.4 1.2-.3.3-.7.5-1.2.5-.4 0-.9-.1-1.2-.4-.4-.3-.5-.7-.5-1.2s.2-.9.5-1.2c.2-.3.6-.5 1.1-.5zm15.6 20.8c2.5-5.6 3.8-9 3.8-10.3 0-.5-.3-.8-1-.9-.4 0-.6-.1-.6-.3 0-.2.1-.4.4-.4h4.3c.4 0 .6.1.6.4 0 .2-.1.3-.4.3-1 .1-1.7.5-2.1 1.2s-1 2-1.8 3.9c-1.3 3.2-2.2 5.4-2.7 6.6-.6 1.1-.9 1.9-1 2.2-.1.4-.3.6-.5.6-.1 0-.3-.2-.5-.7l-2.1-4.6-2.2-4.9c-.7-1.7-1.3-2.8-1.6-3.2-.3-.5-.6-.8-.7-.9-.2-.1-.4-.2-.9-.3-.3 0-.4-.2-.4-.3 0-.2.2-.4.5-.4h5.5c.4 0 .6.1.6.3 0 .2-.2.3-.6.4-.6.1-.9.4-.9.9 0 1.1 1.4 4.5 4.3 10.4zm8.3-4.3c0-2.1.8-3.9 2.3-5.5 1.5-1.6 3.3-2.4 5.5-2.4 2.1 0 3.8.7 5.3 2.1 1.5 1.4 2.2 3.2 2.2 5.3 0 2.1-.8 4-2.3 5.7-1.6 1.6-3.4 2.4-5.5 2.4s-3.8-.7-5.3-2.2c-1.5-1.4-2.2-3.2-2.2-5.4zm2.8-.1c0 2 .5 3.7 1.4 5.1.9 1.3 2.1 2 3.5 2 1.3 0 2.4-.6 3.3-1.9 1-1.3 1.4-2.9 1.4-5 0-1.9-.5-3.5-1.4-5s-2.1-2.2-3.6-2.2c-1.4 0-2.5.7-3.4 2-.7 1.3-1.2 3-1.2 5z"/><path class="st3" d="M56.9 58.1h.9c1.1 0 2 .3 2.5.8.6.5.9 1.2.9 2.1 0 .6-.1 1.1-.4 1.5-.3.4-.6.8-1 1-.4.2-1 .3-1.7.3h-.6c-.4 0-.7-.1-.7-.1h-1.7c-.1 0-.1 0-.1-.1 0 0 0-.1.1-.1 0 0 .1 0 .3-.1.2 0 .4-.1.5-.3.1-.2.2-.6.2-1.4l.1-2.3c0-.3 0-.5-.1-.8 0-.2-.1-.4-.2-.5-.1-.1-.2-.1-.4-.1-.1 0-.2 0-.2-.1s0-.1.1-.1h.5c.3.3.6.3 1 .3zm-.2 4.2c0 .4 0 .6.1.8 0 .2.2.3.3.4.2.1.4.2.8.2.5 0 .9-.1 1.3-.4.3-.2.6-.6.8-1 .2-.4.3-.8.3-1.3 0-.7-.2-1.3-.6-1.9s-1.1-.8-1.9-.8h-.7c-.1 0-.1.1-.1.2v.6c0 .4 0 .7-.1 1v1.2c-.2.6-.2.9-.2 1zM63 60v3.1c0 .2 0 .3.1.4.1.1.2.1.3.1.2 0 .2 0 .2.1 0 0 0 .1-.1.1h-.1c-.3 0-.5-.1-.7-.1h-.9c-.1 0-.1 0-.1-.1s.1-.1.2-.1c.2 0 .3-.1.3-.1s.1-.2.1-.4v-1.8c0-.5 0-.8-.1-.8-.1-.1-.2-.1-.4-.1-.1 0-.1 0-.1-.1v-.1s.2 0 .5-.1.7 0 .8 0zm-.5-2.1c.1 0 .2 0 .3.1.1.1.1.2.1.3 0 .1 0 .2-.1.3s-.2.1-.3.1c-.1 0-.2 0-.3-.1s-.1-.2-.1-.3c0-.1 0-.2.1-.3.1 0 .2-.1.3-.1zm2.8 3.1c.2-.3.4-.6.6-.7s.4-.2.6-.2c.2 0 .3.1.4.2s.2.2.2.4c0 .3-.1.4-.3.4-.1 0-.2-.1-.3-.2-.1-.2-.2-.3-.4-.3-.1 0-.3.1-.4.2-.2.2-.3.3-.3.5-.1.2-.1.6-.1 1.2s0 .9.1 1c0 .1.2.1.4.2.1 0 .1 0 .1.1s-.1.1-.2.1h-1.4c-.1 0-.1 0-.1-.1 0 0 .1-.1.2-.1.2 0 .3-.1.3-.2s.1-.5.1-1.1c0-.9 0-1.5-.1-1.7 0-.2-.2-.3-.4-.3-.1 0-.2 0-.2-.1v-.1h1.2v.8zm3 .7v.3c0 .4.1.8.4 1 .2.3.5.4.9.4.3 0 .7-.1 1-.4.1-.1.1-.1.2-.1 0 0 .1 0 .1.1-.1.2-.3.4-.6.5-.3.1-.6.2-.9.2-.5 0-.9-.2-1.2-.5-.3-.3-.5-.8-.5-1.3 0-.6.2-1 .5-1.4.4-.4.8-.6 1.2-.6.4 0 .7.1 1 .4.3.3.5.6.5 1v.1h-.3l-2.3.3zm0-.2h1.3c.2 0 .3 0 .4-.1s.1-.2.1-.3c0-.2-.1-.5-.2-.6-.2-.2-.4-.3-.6-.3-.2 0-.4.1-.6.3-.2.2-.3.5-.4 1zm3.5 1.4c.1 0 .3.1.4.2s.2.3.2.5-.1.5-.2.8c-.2.3-.3.4-.5.6s-.3.2-.3.2-.1 0-.1-.1c0 0 0-.1.1-.1.1-.1.3-.2.4-.4.1-.2.2-.4.2-.6 0-.1-.1-.2-.2-.2-.2 0-.3-.1-.4-.2-.1-.1-.1-.2-.1-.3 0-.1 0-.2.1-.3s.3-.1.4-.1zm6.7-4.5c.1-.1.1-.2.2-.2 0-.1.1-.1.1-.1h.1c0 .1 0 .3.1.6l.1.8c0 .1 0 .1-.1.1 0 0-.1 0-.1-.1-.2-.4-.4-.7-.7-.9-.3-.2-.6-.4-1-.4-.3 0-.6.1-.8.3-.2.2-.3.4-.3.7 0 .3.1.5.3.7.2.2.6.3 1.2.5.4.1.8.3 1 .4.2.1.4.3.6.5.1.2.2.5.2.7 0 .5-.2.9-.6 1.2-.4.4-.8.5-1.4.5-.5 0-1-.2-1.5-.5-.1.1-.2.2-.2.3 0 .1-.1.1-.1.1s-.1-.1-.1-.2-.1-.7-.1-1.7c0 0 0-.1.1-.1 0 0 .1 0 .1.1.4 1.1 1.1 1.7 1.8 1.7.4 0 .7-.1.9-.4.2-.2.3-.5.3-.8 0-.2-.1-.4-.2-.6-.1-.2-.3-.3-.5-.4s-.5-.2-.9-.4c-.5-.2-.9-.3-1.1-.5s-.3-.3-.4-.5-.1-.4-.1-.6c0-.4.2-.7.5-1 .3-.3.8-.4 1.3-.4.2 0 .4 0 .6.1.2.3.5.4.7.5zm2.8 2c0 .6-.1 1.3-.1 1.9 0 .5.1.8.2.9.1.1.3.2.5.2s.3-.1.5-.2c.1 0 .1-.1.1-.1s.1 0 .1.1-.1.2-.3.3-.5.2-.8.2c-.3 0-.5-.1-.7-.3s-.2-.5-.2-.9 0-1.1.1-2.2H80c-.1 0-.1 0-.1-.1 0 0 0-.1.1-.1s.3-.2.6-.4.4-.5.5-.9c0-.1 0-.2.1-.2s.1 0 .1.1v1.2h.9c.2 0 .2 0 .2.1s0 .2-.1.2c0 .2-.4.2-1 .2zm2.4 1.3v.3c0 .4.1.8.4 1 .2.3.5.4.9.4.3 0 .7-.1 1-.4h.1s.1 0 .1.1c-.1.2-.3.4-.6.5-.3.1-.6.2-.9.2-.5 0-.9-.2-1.2-.5-.4-.3-.5-.8-.5-1.3 0-.6.2-1 .5-1.4.4-.4.8-.6 1.2-.6.4 0 .7.1 1 .4.3.3.5.6.5 1v.1h-.3l-2.2.2zm0-.2H85c.2 0 .3 0 .4-.1s.1-.2.1-.3c0-.2-.1-.5-.2-.6-.2-.2-.4-.3-.6-.3-.2 0-.4.1-.6.3-.2.2-.3.5-.4 1zm4.1-1.4c.1.2.1.5.1.9.2-.3.4-.5.6-.6.2-.1.5-.2.7-.2.2 0 .4 0 .6.1.2.1.3.2.4.4s.1.5.1.9V63c0 .3 0 .4.1.5 0 .1.1.1.3.2.1 0 .2.1.2.1s0 .1-.1.1h-1.4c-.1 0-.2 0-.2-.1 0 0 0-.1.1-.1.2 0 .3-.1.3-.1l.1-.1V62c0-.6-.1-1-.2-1.2s-.3-.3-.6-.3-.6.2-.8.5c-.2.4-.3 1-.3 1.8 0 .4 0 .6.1.7 0 .1.2.2.4.2.1 0 .1 0 .1.1 0 0 0 .1-.1.1H87c-.1 0-.2 0-.2-.1 0 0 .1-.1.2-.1s.2-.1.3-.1c0-.1.1-.3.1-.6v-1.4c0-.5 0-.8-.1-.9s-.2-.2-.3-.2c-.1 0-.2-.1-.2-.1s0-.1.1-.1h.3c.1-.2.3-.2.6-.2zm3.6 1.8c0-.5.2-.9.5-1.3.4-.4.8-.6 1.3-.6s.9.2 1.3.5.5.8.5 1.3-.2 1-.6 1.4c-.4.4-.8.6-1.3.6s-.9-.2-1.3-.5c-.2-.4-.4-.8-.4-1.4zm.7 0c0 .5.1.9.3 1.2.2.3.5.5.8.5.3 0 .6-.2.8-.5s.4-.7.4-1.2-.1-.9-.3-1.2-.5-.5-.9-.5c-.3 0-.6.2-.8.5-.2.3-.3.7-.3 1.2zm5-1.5c0 .6-.1 1.3-.1 1.9 0 .5.1.8.2.9.1.1.3.2.5.2s.3-.1.5-.2c.1 0 .1-.1.1-.1s.1 0 .1.1-.1.2-.3.3-.5.2-.8.2c-.3 0-.5-.1-.7-.3s-.2-.5-.2-.9 0-1.1.1-2.2h-.7c-.1 0-.1 0-.1-.1 0 0 0-.1.1-.1s.3-.2.6-.4.4-.5.5-.9c0-.1 0-.2.1-.2s.1 0 .1.1v1.2h.9c.2 0 .2 0 .2.1s0 .2-.1.2c0 .2-.4.2-1 .2zm2.9-.4v3.1c0 .2 0 .3.1.4.1.1.2.1.3.1.2 0 .2 0 .2.1 0 0 0 .1-.1.1h-.1c-.3 0-.5-.1-.7-.1h-.9c-.1 0-.1 0-.1-.1s.1-.1.2-.1c.2 0 .3-.1.3-.1s.1-.2.1-.4v-1.8c0-.5 0-.8-.1-.8-.1-.1-.2-.1-.4-.1-.1 0-.1 0-.1-.1v-.1s.2 0 .5-.1.6 0 .8 0zm-.5-2.1c.1 0 .2 0 .3.1.1.1.1.2.1.3 0 .1 0 .2-.1.3s-.2.1-.3.1c-.1 0-.2 0-.3-.1s-.1-.2-.1-.3c0-.1 0-.2.1-.3.1 0 .2-.1.3-.1zm2.6 2.2v.7c.3-.3.5-.4.7-.5.2-.1.3-.1.5-.1.4 0 .8.2 1.1.5.3.4.5.8.5 1.3s-.2 1-.5 1.3c-.4.3-.8.5-1.2.5-.3 0-.7-.1-1-.3 0 .4-.1.7-.1 1.2v.8c.1.2.2.3.4.3.1 0 .1 0 .1.1h-1.7c-.1 0-.1 0-.1-.1 0 0 0-.1.1-.1.3 0 .4-.1.5-.2s.1-.5.1-1.2V61c0-.4 0-.6-.1-.7 0-.1-.2-.2-.4-.2-.1 0-.1 0-.1-.1v-.1h.4l.8.2zm0 1.9v1c0 .1.1.3.3.4s.4.2.6.2c.3 0 .6-.1.8-.4.2-.3.3-.7.3-1.1 0-.5-.1-.9-.3-1.2-.2-.3-.5-.4-.8-.4-.3 0-.5.1-.7.4-.1.1-.2.5-.2 1.1zm5.6 1.2c-.1.2-.3.4-.5.5-.2.1-.4.2-.7.2-.3 0-.5-.1-.7-.2-.2-.2-.2-.4-.2-.6 0-.2 0-.4.1-.5.1-.2.2-.3.3-.4.1-.1.4-.2.7-.3.5-.2.7-.3.8-.4.1-.1.1-.2.1-.4 0-.3-.1-.5-.2-.6-.1-.1-.3-.2-.5-.2s-.3 0-.4.1c-.1.1-.2.2-.2.5-.1.3-.2.4-.3.4-.1 0-.1 0-.2-.1s-.1-.2-.1-.3c0-.2.1-.4.4-.6.2-.2.6-.2 1-.2.3 0 .6 0 .8.1s.3.2.4.3c0 .1.1.4.1.7v1.1c0 .4 0 .8.1.9.1.2.2.3.3.3h.2c.1 0 .1 0 .1.1s-.3.2-.8.2c-.2 0-.3 0-.3-.1-.3-.1-.3-.3-.3-.5zm0-1.7c-.1.1-.3.2-.6.4s-.5.3-.6.4c-.1.1-.2.3-.2.5s.1.3.2.5c.1.1.2.2.4.2s.3-.1.5-.2c.1-.1.3-.2.3-.4s.1-.4.1-.7c-.1-.1-.1-.4-.1-.7zm2.8-.5c.2-.3.4-.6.6-.7s.4-.2.6-.2c.2 0 .3.1.4.2s.2.2.2.4c0 .3-.1.4-.3.4-.1 0-.2-.1-.3-.2-.1-.2-.2-.3-.4-.3-.1 0-.3.1-.4.2-.2.2-.3.3-.3.5-.1.2-.1.6-.1 1.2s0 .9.1 1c0 .1.2.1.4.2.1 0 .1 0 .1.1s-.1.1-.2.1h-1.4c-.1 0-.1 0-.1-.1 0 0 .1-.1.2-.1.2 0 .3-.1.3-.2s.1-.5.1-1.1c0-.9 0-1.5-.1-1.7 0-.2-.2-.3-.4-.3-.1 0-.2 0-.2-.1v-.1h1.2v.8zm3 .7v.3c0 .4.1.8.4 1 .2.3.5.4.9.4.3 0 .7-.1 1-.4.1-.1.1-.1.2-.1 0 0 .1 0 .1.1-.1.2-.3.4-.6.5-.3.1-.6.2-.9.2-.5 0-.9-.2-1.2-.5-.3-.3-.5-.8-.5-1.3 0-.6.2-1 .5-1.4.4-.4.8-.6 1.2-.6.4 0 .7.1 1 .4.3.3.5.6.5 1v.1h-.3l-2.3.3zm0-.2h1.3c.2 0 .3 0 .4-.1s.1-.2.1-.3c0-.2-.1-.5-.2-.6-.2-.2-.4-.3-.6-.3-.2 0-.4.1-.6.3-.2.2-.3.5-.4 1zm3.5 1.4c.1 0 .3.1.4.2s.2.3.2.5-.1.5-.2.8c-.2.3-.3.4-.5.6s-.3.2-.3.2-.1 0-.1-.1c0 0 0-.1.1-.1.1-.1.3-.2.4-.4.1-.2.2-.4.2-.6 0-.1-.1-.2-.2-.2-.2 0-.3-.1-.4-.2-.1-.1-.1-.2-.1-.3 0-.1 0-.2.1-.3s.3-.1.4-.1zm8.2-4.7c.1.3.2.8.2 1.3h-.1c-.2-.3-.4-.6-.6-.7-.2-.2-.4-.3-.5-.4-.2-.1-.5-.1-.9-.1s-.8 0-1 .1v2.4h.4c.4 0 .6-.1.8-.2s.3-.3.4-.7c0-.1 0-.1.1-.1s.1 0 .1.1v2c0 .1 0 .1-.1.1 0 0-.1 0-.1-.1-.1-.3-.2-.6-.4-.7-.2-.1-.6-.2-1.3-.2v1c0 .6 0 1 .1 1.2 0 .2.1.3.3.4.2.1.4.1.8.1 1.1 0 1.8-.4 2.2-1.2 0-.1.1-.1.1-.1s.1 0 .1.1v.1c0 .1-.1.3-.1.6 0 .1-.1.3-.2.7h-4.8c0-.1 0-.1.1-.1.3 0 .5-.1.6-.3s.2-.6.2-1.2v-2.6c0-.4 0-.7-.1-.8 0-.1-.1-.1-.1-.2s-.2-.1-.5-.2c-.1 0-.1-.1-.1-.1 0-.1.1-.1.2-.1h3.2c.6-.1 1-.1 1-.1zm2.4-.4v5.1c0 .2 0 .4.1.5s.2.2.5.2c.1 0 .1 0 .1.1 0 0 0 .1-.1.1h-1.9c-.1 0-.1 0-.1-.1 0 0 0-.1.1-.1.3 0 .4-.1.5-.2.1-.1.1-.4.1-.7v-3.9c0-.2-.1-.3-.2-.4-.1-.1-.2-.2-.4-.2-.1 0-.2 0-.2-.1 0 0 0-.1.1-.1.7 0 1-.1 1.4-.2zm3.4 5.4c-.1.2-.3.4-.5.5-.2.1-.4.2-.7.2-.3 0-.5-.1-.7-.2-.2-.2-.2-.4-.2-.6 0-.2 0-.4.1-.5.1-.2.2-.3.3-.4.1-.1.4-.2.7-.3.5-.2.7-.3.8-.4.1-.1.1-.2.1-.4 0-.3-.1-.5-.2-.6-.1-.1-.3-.2-.5-.2s-.3 0-.4.1c-.1.1-.2.2-.2.5-.1.3-.2.4-.3.4-.1 0-.1 0-.2-.1s-.1-.2-.1-.3c0-.2.1-.4.4-.6.2-.2.6-.2 1-.2.3 0 .6 0 .8.1s.3.2.4.3c0 .1.1.4.1.7v1.1c0 .4 0 .8.1.9.1.2.2.3.3.3h.2c.1 0 .1 0 .1.1s-.3.2-.8.2c-.2 0-.3 0-.3-.1-.2-.1-.3-.3-.3-.5zm0-1.7c-.1.1-.3.2-.6.4s-.5.3-.6.4c-.1.1-.2.3-.2.5s.1.3.2.5c.1.1.2.2.4.2s.3-.1.5-.2c.1-.1.3-.2.3-.4s.1-.4.1-.7c0-.1-.1-.4-.1-.7zm2.6-1c.3-.3.7-.5 1.1-.5.5 0 .9.2 1.2.5.3.4.5.8.5 1.3s-.2 1-.5 1.4c-.3.4-.7.6-1.3.6-.4 0-.8-.1-1.1-.3-.1-.1-.2-.1-.2-.1-.1 0-.1.1-.2.2 0 .1-.1.2-.1.2s-.1 0-.1-.1v-.2l.1-3.8v-1.2c0-.1 0-.2-.1-.3-.1-.1-.1-.1-.3-.2-.1 0-.1 0-.1-.1 0 0 0-.1.1-.1h1l.1.1v.2c-.1.5-.1 1.3-.1 2.4zm0 1.9c0 .3 0 .5.1.7 0 .1.2.3.3.4.2.1.4.2.6.2.3 0 .6-.1.8-.4.2-.3.3-.7.3-1.2s-.1-1-.3-1.3c-.2-.3-.5-.5-.8-.5-.3 0-.5.1-.7.4s-.3.8-.3 1.7zm3.4-.5c0-.5.2-.9.5-1.3.4-.4.8-.6 1.3-.6s.9.2 1.3.5.5.8.5 1.3-.2 1-.6 1.4c-.4.4-.8.6-1.3.6s-.9-.2-1.3-.5c-.3-.4-.4-.8-.4-1.4zm.7 0c0 .5.1.9.3 1.2.2.3.5.5.8.5.3 0 .6-.2.8-.5s.4-.7.4-1.2-.1-.9-.3-1.2-.5-.5-.9-.5c-.3 0-.6.2-.8.5-.2.3-.3.7-.3 1.2zm4.8-.9c.2-.3.4-.6.6-.7s.4-.2.6-.2c.2 0 .3.1.4.2s.2.2.2.4c0 .3-.1.4-.3.4-.1 0-.2-.1-.3-.2-.1-.2-.2-.3-.4-.3-.1 0-.3.1-.4.2-.2.2-.3.3-.3.5-.1.2-.1.6-.1 1.2s0 .9.1 1c0 .1.2.1.4.2.1 0 .1 0 .1.1s-.1.1-.2.1h-1.4c-.1 0-.1 0-.1-.1 0 0 .1-.1.2-.1.2 0 .3-.1.3-.2s.1-.5.1-1.1c0-.9 0-1.5-.1-1.7 0-.2-.2-.3-.4-.3-.1 0-.2 0-.2-.1v-.1h1.2c-.1 0 0 .4 0 .8zm4.6 2.2c-.1.2-.3.4-.5.5-.2.1-.4.2-.7.2-.3 0-.5-.1-.7-.2-.2-.2-.2-.4-.2-.6 0-.2 0-.4.1-.5.1-.2.2-.3.3-.4.1-.1.4-.2.7-.3.5-.2.7-.3.8-.4.1-.1.1-.2.1-.4 0-.3-.1-.5-.2-.6-.1-.1-.3-.2-.5-.2s-.3 0-.4.1c-.1.1-.2.2-.2.5-.1.3-.2.4-.3.4-.1 0-.1 0-.2-.1s-.1-.2-.1-.3c0-.2.1-.4.4-.6.2-.2.6-.2 1-.2.3 0 .6 0 .8.1s.3.2.4.3c0 .1.1.4.1.7v1.1c0 .4 0 .8.1.9.1.2.2.3.3.3h.2c.1 0 .1 0 .1.1s-.3.2-.8.2c-.2 0-.3 0-.3-.1-.3-.1-.3-.3-.3-.5zm0-1.7c-.1.1-.3.2-.6.4s-.5.3-.6.4c-.1.1-.2.3-.2.5s.1.3.2.5c.1.1.2.2.4.2s.3-.1.5-.2c.1-.1.3-.2.3-.4s.1-.4.1-.7c-.1-.1-.1-.4-.1-.7zm2.8-.5c.2-.3.4-.6.6-.7s.4-.2.6-.2c.2 0 .3.1.4.2s.2.2.2.4c0 .3-.1.4-.3.4-.1 0-.2-.1-.3-.2-.1-.2-.2-.3-.4-.3-.1 0-.3.1-.4.2-.2.2-.3.3-.3.5-.1.2-.1.6-.1 1.2s0 .9.1 1c0 .1.2.1.4.2.1 0 .1 0 .1.1s-.1.1-.2.1h-1.4c-.1 0-.1 0-.1-.1 0 0 .1-.1.2-.1.2 0 .3-.1.3-.2s.1-.5.1-1.1c0-.9 0-1.5-.1-1.7 0-.2-.2-.3-.4-.3-.1 0-.2 0-.2-.1v-.1h1.2v.8zm3 .7v.3c0 .4.1.8.4 1 .2.3.5.4.9.4.3 0 .7-.1 1-.4.1-.1.1-.1.2-.1 0 0 .1 0 .1.1-.1.2-.3.4-.6.5-.3.1-.6.2-.9.2-.5 0-.9-.2-1.2-.5-.3-.3-.5-.8-.5-1.3 0-.6.2-1 .5-1.4.4-.4.8-.6 1.2-.6.4 0 .7.1 1 .4.3.3.5.6.5 1v.1h-.3l-2.3.3zm0-.2h1.3c.2 0 .3 0 .4-.1s.1-.2.1-.3c0-.2-.1-.5-.2-.6-.2-.2-.4-.3-.6-.3-.2 0-.4.1-.6.3-.2.2-.3.5-.4 1zm3.5 1.4c.1 0 .3.1.4.2s.2.3.2.5-.1.5-.2.8c-.2.3-.3.4-.5.6s-.3.2-.3.2-.1 0-.1-.1c0 0 0-.1.1-.1.1-.1.3-.2.4-.4.1-.2.2-.4.2-.6 0-.1-.1-.2-.2-.2-.2 0-.3-.1-.4-.2-.1-.1-.1-.2-.1-.3 0-.1 0-.2.1-.3s.3-.1.4-.1zm8.3.9h-4.5c-.2 0-.3 0-.3-.1 0 0 0-.1.1-.1.3 0 .5-.1.6-.2.1-.1.2-.2.2-.4s.1-.7.1-1.5V60c0-.5 0-.8-.1-1 0-.2-.1-.3-.3-.5-.1-.1-.3-.2-.5-.2-.1 0-.1 0-.1-.1s0-.1.1-.1h2.5c.1 0 .1 0 .1.1s0 .1-.1.1c-.2 0-.4 0-.5.1l-.3.3c0 .1-.1.3-.1.6v3.8c0 .1.1.2.2.3.1.1.3.1.5.1h.8c.4-.1.7-.2 1.1-.6s.5-.6.6-.9c0-.1.1-.1.1-.1s.1 0 .1.1 0 .4-.1.9-.1.8-.2.9zm1.4-2.1v.3c0 .4.1.8.4 1 .2.3.5.4.9.4.3 0 .7-.1 1-.4.1-.1.1-.1.2-.1 0 0 .1 0 .1.1-.1.2-.3.4-.6.5-.3.1-.6.2-.9.2-.5 0-.9-.2-1.2-.5-.3-.3-.5-.8-.5-1.3 0-.6.2-1 .5-1.4.4-.4.8-.6 1.2-.6.4 0 .7.1 1 .4.3.3.5.6.5 1v.1h-.3l-2.3.3zm0-.2h1.3c.2 0 .3 0 .4-.1s.1-.2.1-.3c0-.2-.1-.5-.2-.6-.2-.2-.4-.3-.6-.3-.2 0-.4.1-.6.3-.2.2-.3.5-.4 1zm4.4-1.1c0 .6-.1 1.3-.1 1.9 0 .5.1.8.2.9.1.1.3.2.5.2s.3-.1.5-.2c.1 0 .1-.1.1-.1s.1 0 .1.1-.1.2-.3.3-.5.2-.8.2c-.3 0-.5-.1-.7-.3s-.2-.5-.2-.9 0-1.1.1-2.2h-.7c-.1 0-.1 0-.1-.1 0 0 0-.1.1-.1s.3-.2.6-.4.4-.5.5-.9c0-.1 0-.2.1-.2s.1 0 .1.1v1.2h.9c.2 0 .2 0 .2.1s0 .2-.1.2c0 .2-.4.2-1 .2zm3 0c0 .6-.1 1.3-.1 1.9 0 .5.1.8.2.9.1.1.3.2.5.2s.3-.1.5-.2c.1 0 .1-.1.1-.1s.1 0 .1.1-.1.2-.3.3-.5.2-.8.2c-.3 0-.5-.1-.7-.3s-.2-.5-.2-.9 0-1.1.1-2.2h-.7c-.1 0-.1 0-.1-.1 0 0 0-.1.1-.1s.3-.2.6-.4.4-.5.5-.9c0-.1 0-.2.1-.2s.1 0 .1.1v1.2h.9c.2 0 .2 0 .2.1s0 .2-.1.2c0 .2-.4.2-1 .2zm2.4 1.3v.3c0 .4.1.8.4 1 .2.3.5.4.9.4.3 0 .7-.1 1-.4.1-.1.1-.1.2-.1 0 0 .1 0 .1.1-.1.2-.3.4-.6.5-.3.1-.6.2-.9.2-.5 0-.9-.2-1.2-.5-.3-.3-.5-.8-.5-1.3 0-.6.2-1 .5-1.4.4-.4.8-.6 1.2-.6.4 0 .7.1 1 .4.3.3.5.6.5 1v.1h-.3l-2.3.3zm0-.2h1.3c.2 0 .3 0 .4-.1s.1-.2.1-.3c0-.2-.1-.5-.2-.6-.2-.2-.4-.3-.6-.3-.2 0-.4.1-.6.3-.2.2-.3.5-.4 1zm4.3-.5c.2-.3.4-.6.6-.7s.4-.2.6-.2c.2 0 .3.1.4.2s.2.2.2.4c0 .3-.1.4-.3.4-.1 0-.2-.1-.3-.2-.1-.2-.2-.3-.4-.3-.1 0-.3.1-.4.2-.2.2-.3.3-.3.5-.1.2-.1.6-.1 1.2s0 .9.1 1c0 .1.2.1.4.2.1 0 .1 0 .1.1s-.1.1-.2.1h-1.4c-.1 0-.1 0-.1-.1 0 0 .1-.1.2-.1.2 0 .3-.1.3-.2s.1-.5.1-1.1c0-.9 0-1.5-.1-1.7 0-.2-.2-.3-.4-.3-.1 0-.2 0-.2-.1v-.1h1.2c-.1 0-.1.4 0 .8zm4.6 2.2c-.1.2-.3.4-.5.5-.2.1-.4.2-.7.2-.3 0-.5-.1-.7-.2-.2-.2-.2-.4-.2-.6 0-.2 0-.4.1-.5.1-.2.2-.3.3-.4.1-.1.4-.2.7-.3.5-.2.7-.3.8-.4.1-.1.1-.2.1-.4 0-.3-.1-.5-.2-.6-.1-.1-.3-.2-.5-.2s-.3 0-.4.1c-.1.1-.2.2-.2.5-.1.3-.2.4-.3.4-.1 0-.1 0-.2-.1s-.1-.2-.1-.3c0-.2.1-.4.4-.6.2-.2.6-.2 1-.2.3 0 .6 0 .8.1s.3.2.4.3c0 .1.1.4.1.7v1.1c0 .4 0 .8.1.9.1.2.2.3.3.3h.2c.1 0 .1 0 .1.1s-.3.2-.8.2c-.2 0-.3 0-.3-.1-.3-.1-.3-.3-.3-.5zm0-1.7c-.1.1-.3.2-.6.4s-.5.3-.6.4c-.1.1-.2.3-.2.5s.1.3.2.5c.1.1.2.2.4.2s.3-.1.5-.2c.1-.1.3-.2.3-.4s.1-.4.1-.7c-.1-.1-.1-.4-.1-.7zm2.2 1.4c.1 0 .3.1.4.2s.2.3.2.5-.1.5-.2.8c-.2.3-.3.4-.5.6s-.3.2-.3.2-.1 0-.1-.1c0 0 0-.1.1-.1.1-.1.3-.2.4-.4.1-.2.2-.4.2-.6 0-.1-.1-.2-.2-.2-.2 0-.3-.1-.4-.2-.1-.1-.1-.2-.1-.3 0-.1 0-.2.1-.3s.2-.1.4-.1zm5.3-4.8h.9c1.1 0 2 .3 2.5.8.6.5.9 1.2.9 2.1 0 .6-.1 1.1-.4 1.5-.3.4-.6.8-1 1-.4.2-1 .3-1.7.3h-.6c-.4 0-.7-.1-.7-.1h-1.7c-.1 0-.1 0-.1-.1 0 0 0-.1.1-.1 0 0 .1 0 .3-.1.2 0 .4-.1.5-.3.1-.2.2-.6.2-1.4l.1-2.3c0-.3 0-.5-.1-.8 0-.2-.1-.4-.2-.5-.1-.1-.2-.1-.4-.1-.1 0-.2 0-.2-.1s0-.1.1-.1h.5c.3.3.6.3 1 .3zm-.2 4.2c0 .4 0 .6.1.8 0 .2.2.3.3.4.2.1.4.2.8.2.5 0 .9-.1 1.3-.4.3-.2.6-.6.8-1 .2-.4.3-.8.3-1.3 0-.7-.2-1.3-.6-1.9s-1.1-.8-1.9-.8h-.7c-.1 0-.1.1-.1.2v.6c0 .4 0 .7-.1 1v1.2c-.2.6-.2.9-.2 1zm5.1-.4c0-.5.2-.9.5-1.3.4-.4.8-.6 1.3-.6s.9.2 1.3.5.5.8.5 1.3-.2 1-.6 1.4c-.4.4-.8.6-1.3.6s-.9-.2-1.3-.5c-.2-.4-.4-.8-.4-1.4zm.7 0c0 .5.1.9.3 1.2.2.3.5.5.8.5.3 0 .6-.2.8-.5s.4-.7.4-1.2-.1-.9-.3-1.2-.5-.5-.9-.5c-.3 0-.6.2-.8.5-.2.3-.3.7-.3 1.2zm3.6.1c0-.5.2-1 .5-1.4s.7-.6 1.2-.6c.3 0 .6.1.9.2.3.2.4.3.4.6 0 .1 0 .2-.1.2-.1.1-.1.1-.2.1-.2 0-.3-.1-.4-.4-.1-.4-.4-.6-.7-.6-.3 0-.6.1-.7.4-.2.3-.3.7-.3 1.1 0 .5.1 1 .4 1.3.2.3.5.5.9.5.2 0 .4-.1.6-.3.2-.2.3-.4.4-.6 0-.1 0-.1.1-.1s.1 0 .1.1c0 .3-.1.5-.4.8-.3.2-.6.4-1 .4-.5 0-.9-.2-1.2-.5-.3-.3-.5-.7-.5-1.2zm4.7-1.9v2.7c0 .2.1.3.2.5.1.1.3.2.4.2.2 0 .4-.1.6-.3.2-.2.3-.4.4-.6s.1-.7.1-1.5c0-.4 0-.6-.1-.7 0-.1-.2-.1-.3-.1-.1 0-.1 0-.1-.1v-.1h1.1v2.6c0 .3 0 .5.1.6.1.1.1.1.3.1.1 0 .1 0 .1.1s-.1.1-.2.1h-.7c-.1 0-.2 0-.2-.1v-.7c-.2.3-.4.5-.7.6-.2.1-.5.2-.7.2-.2 0-.4-.1-.5-.2s-.2-.2-.3-.4c0-.2-.1-.5-.1-1.1v-1.7s-.1-.1-.2-.1-.2 0-.2-.1.1-.1.2-.1h.8zm4.7-.1c0 .1.1.2.1.3v.4c.2-.2.4-.4.6-.5.2-.1.4-.2.7-.2.2 0 .4 0 .6.1.2.1.3.2.5.4.2-.2.4-.3.6-.4.2-.1.4-.1.6-.1.3 0 .5.1.7.2.2.1.3.2.3.4 0 .1.1.4.1.8V63c0 .2 0 .4.1.5 0 .1.1.1.3.1.1 0 .1 0 .1.1s-.1.1-.2.1h-1.3c-.1 0-.2 0-.2-.1 0 0 0-.1.1-.1.2 0 .4-.1.4-.2.1-.1.1-.6.1-1.5V61c0-.2-.1-.4-.2-.5-.1-.1-.3-.2-.5-.2s-.3 0-.5.1c-.1.1-.3.2-.4.4-.1.4-.2 1-.2 2 0 .3 0 .5.1.6s.2.1.4.1h.1c.1 0 .1 0 .1.1s-.1.1-.2.1h-1.4c-.1 0-.2 0-.2-.1s0-.1.1-.1c.2 0 .3 0 .4-.1s.1-.3.1-.6v-1c0-.6-.1-1-.2-1.2-.1-.2-.3-.3-.5-.3s-.4.1-.6.2c-.2.2-.3.4-.4.6-.1.3-.1.7-.1 1.4 0 .5 0 .8.1.9 0 .1.2.2.3.2h.1v.1s-.1.1-.2.1H210c-.2 0-.2 0-.2-.1 0 0 0-.1.1-.1.2 0 .3 0 .3-.1s.1-.2.1-.5v-2.4c0-.1 0-.2-.1-.3-.1-.1-.2-.1-.4-.1-.1 0-.1 0-.1-.1V60s.1 0 .4-.1.5 0 .6 0c0 .1.1.1.2.1zm6.4 1.7v.3c0 .4.1.8.4 1 .2.3.5.4.9.4.3 0 .7-.1 1-.4.1-.1.1-.1.2-.1 0 0 .1 0 .1.1-.1.2-.3.4-.6.5-.3.1-.6.2-.9.2-.5 0-.9-.2-1.2-.5-.3-.3-.5-.8-.5-1.3 0-.6.2-1 .5-1.4.4-.4.8-.6 1.2-.6.4 0 .7.1 1 .4.3.3.5.6.5 1v.1h-.3l-2.3.3zm0-.2h1.3c.2 0 .3 0 .4-.1s.1-.2.1-.3c0-.2-.1-.5-.2-.6-.2-.2-.4-.3-.6-.3-.2 0-.4.1-.6.3-.2.2-.4.5-.4 1zm4.1-1.4c.1.2.1.5.1.9.2-.3.4-.5.6-.6.2-.1.5-.2.7-.2.2 0 .4 0 .6.1.2.1.3.2.4.4s.1.5.1.9V63c0 .3 0 .4.1.5 0 .1.1.1.3.2.1 0 .2.1.2.1s0 .1-.1.1H223c-.1 0-.2 0-.2-.1 0 0 0-.1.1-.1.2 0 .3-.1.3-.1l.1-.1V62c0-.6-.1-1-.2-1.2s-.3-.3-.6-.3-.6.2-.8.5c-.2.4-.3 1-.3 1.8 0 .4 0 .6.1.7 0 .1.2.2.4.2.1 0 .1 0 .1.1 0 0 0 .1-.1.1h-1.3c-.1 0-.2 0-.2-.1 0 0 .1-.1.2-.1s.2-.1.3-.1c0-.1.1-.3.1-.6v-1.4c0-.5 0-.8-.1-.9s-.2-.2-.3-.2c-.1 0-.2-.1-.2-.1s0-.1.1-.1h.3c.1-.2.3-.2.6-.2zm5 .3c0 .6-.1 1.3-.1 1.9 0 .5.1.8.2.9.1.1.3.2.5.2s.3-.1.5-.2c.1 0 .1-.1.1-.1s.1 0 .1.1-.1.2-.3.3-.5.2-.8.2c-.3 0-.5-.1-.7-.3s-.2-.5-.2-.9 0-1.1.1-2.2h-.7c-.1 0-.1 0-.1-.1 0 0 0-.1.1-.1s.3-.2.6-.4.4-.5.5-.9c0-.1 0-.2.1-.2s.1 0 .1.1v1.2h.9c.2 0 .2 0 .2.1s0 .2-.1.2c-.1.2-.4.2-1 .2zm1.6 1.5c0-.5.2-.9.5-1.3.4-.4.8-.6 1.3-.6s.9.2 1.3.5.5.8.5 1.3-.2 1-.6 1.4c-.4.4-.8.6-1.3.6s-.9-.2-1.3-.5c-.2-.4-.4-.8-.4-1.4zm.7 0c0 .5.1.9.3 1.2.2.3.5.5.8.5.3 0 .6-.2.8-.5s.4-.7.4-1.2-.1-.9-.3-1.2-.5-.5-.9-.5c-.3 0-.6.2-.8.5-.2.3-.3.7-.3 1.2z"/><path class="st0" d="M17.2 84.5h214.6v1.1H17.2z"/><path class="st3" d="M27.4 75.9l17.5-17.5c1.1-1.1 1.8-2.7 1.8-4.4 0-2.3-1.2-4.3-3.1-5.4L24.2 37.5l-3.8 2.2c-1.4.8-2.3 2.3-2.3 4 0 1.1.4 2 .9 2.8l-.1-.1c-1.2-1.1-2-2.7-2-4.4 0-2.1 1.1-3.9 2.7-4.9l20.7-12c3.7-2.2 6.2-6.2 6.2-10.8 0-4.7-2.6-8.9-6.5-11v.4c0 3.2-1.2 6.1-3.2 8.3-.9 1-2 1.8-3.1 2.5L6 30.5c-1.8 1.1-3.1 3.1-3.1 5.4 0 1.6.6 3.1 1.7 4.2.4.5.9.9 1.5 1.2l2.2 1.3 31 17.9-9.5-2.4-6.2 15.6 3.8 2.2z"/><path class="st2" d="M25.5 77.8l-5.9 5.9 3-7.6z"/><defs><path id="SVGID_1_" d="M27.4 75.9l17.5-17.5c1.1-1.1 1.8-2.7 1.8-4.4 0-2.3-1.2-4.3-3.1-5.4L24.2 37.5l-3.8 2.2c-1.4.8-2.3 2.3-2.3 4 0 1.1.4 2 .9 2.8l-.1-.1c-1.2-1.1-2-2.7-2-4.4 0-2.1 1.1-3.9 2.7-4.9l20.7-12c3.7-2.2 6.2-6.2 6.2-10.8 0-4.7-2.6-8.9-6.5-11v.4c0 3.2-1.2 6.1-3.2 8.3-.9 1-2 1.8-3.1 2.5L6 30.5c-1.8 1.1-3.1 3.1-3.1 5.4 0 1.6.6 3.1 1.7 4.2.4.5.9.9 1.5 1.2l2.2 1.3 31 17.9-9.5-2.4-6.2 15.6 3.8 2.2z"/></defs><clipPath id="SVGID_2_"><use xlink:href="#SVGID_1_" overflow="visible"/></clipPath><linearGradient id="SVGID_3_" gradientUnits="userSpaceOnUse" x1="14.252" y1="65.368" x2="33.951" y2="65.368"><stop offset="0" stop-color="#812f46"/><stop offset="1" stop-color="#3d111a" stop-opacity="0"/></linearGradient><path class="st4" d="M22.1 74.6l19.7-13.1-13-5.4z"/><linearGradient id="SVGID_4_" gradientUnits="userSpaceOnUse" x1="43.038" y1="36.297" x2="18.502" y2="53.3"><stop offset="0" stop-color="#812f46"/><stop offset="1" stop-color="#3d111a" stop-opacity="0"/></linearGradient><path class="st5" d="M34.8 59.4l-7.9-26.5L3.9 46z"/><linearGradient id="SVGID_5_" gradientUnits="userSpaceOnUse" x1="50.103" y1="41.519" x2="31.79" y2="47.62"><stop offset="0" stop-color="#812f46"/><stop offset="1" stop-color="#3d111a" stop-opacity="0"/></linearGradient><path class="st6" d="M34.2 57.6L49 49.8 27.9 38.2z"/><linearGradient id="SVGID_6_" gradientUnits="userSpaceOnUse" x1="34.632" y1="15.427" x2="4.511" y2="36.3"><stop offset="0" stop-color="#812f46"/><stop offset="1" stop-color="#3d111a" stop-opacity="0"/></linearGradient><path class="st7" d="M27.3 34.2L20 11.8-4.8 31.2z"/><linearGradient id="SVGID_7_" gradientUnits="userSpaceOnUse" x1="50.075" y1="9.8" x2="26.36" y2="26.235"><stop offset="0" stop-color="#812f46"/><stop offset="1" stop-color="#3d111a" stop-opacity="0"/></linearGradient><path class="st8" d="M27.3 34.2L49 21.9l-27-4z"/><linearGradient id="SVGID_8_" gradientUnits="userSpaceOnUse" x1="59.826" y1="47.484" x2="42.49" y2="59.498"><stop offset="0" stop-color="#812f46"/><stop offset="1" stop-color="#3d111a" stop-opacity="0"/></linearGradient><path class="st9" d="M43.4 65.6L53 47.7l-13.6 7.2z"/></svg>