<?xml version="1.0" encoding="utf-8"?>
<!-- Generator: Adobe Illustrator 22.0.0, SVG Export Plug-In . SVG Version: 6.00 Build 0)  -->
<svg version="1.1" id="logo_full_version" xmlns="http://www.w3.org/2000/svg" xmlns:xlink="http://www.w3.org/1999/xlink" x="0px"
	 y="0px" viewBox="0 0 234.7 104.4" style="enable-background:new 0 0 234.7 104.4;" xml:space="preserve">
<style type="text/css">
	.st0{fill:#FFFFFF;}
</style>
<g>
	<g>
		<rect x="17.2" y="82.7" class="st0" width="1.1" height="4.6"/>
	</g>
	<g>
		<g>
			<rect x="118.3" y="81.5" class="st0" width="1.1" height="7.1"/>
		</g>
		<g>
			<rect x="118.3" y="85" class="st0" width="1.1" height="3.6"/>
		</g>
	</g>
	<g>
		<g>
			<rect x="127.7" y="75.4" class="st0" width="1.1" height="19.4"/>
		</g>
		<g>
			<rect x="127.7" y="85" class="st0" width="1.1" height="9.7"/>
		</g>
	</g>
	<g>
		<g>
			<rect x="137.1" y="78" class="st0" width="1.1" height="14"/>
		</g>
		<g>
			<rect x="137.1" y="84.9" class="st0" width="1.1" height="7.2"/>
		</g>
	</g>
	<g>
		<g>
			<rect x="221.4" y="80.9" class="st0" width="1.1" height="8.3"/>
		</g>
		<g>
			<rect x="221.4" y="85" class="st0" width="1.1" height="4.2"/>
		</g>
	</g>
	<g>
		<g>
			<rect x="146.4" y="71.7" class="st0" width="1.1" height="26.6"/>
		</g>
		<g>
			<rect x="146.4" y="84.9" class="st0" width="1.1" height="13.5"/>
		</g>
	</g>
	<g>
		<g>
			<rect x="155.8" y="68.2" class="st0" width="1.1" height="33.7"/>
		</g>
		<g>
			<rect x="155.8" y="85" class="st0" width="1.1" height="16.8"/>
		</g>
	</g>
	<g>
		<g>
			<rect x="165.2" y="73.6" class="st0" width="1.1" height="22.8"/>
		</g>
		<g>
			<rect x="165.2" y="85" class="st0" width="1.1" height="11.4"/>
		</g>
	</g>
	<g>
		<g>
			<rect x="174.5" y="73.8" class="st0" width="1.1" height="22.6"/>
		</g>
		<g>
			<rect x="174.5" y="84.9" class="st0" width="1.1" height="11.4"/>
		</g>
	</g>
	<g>
		<g>
			<rect x="212" y="79.1" class="st0" width="1.1" height="11.9"/>
		</g>
		<g>
			<rect x="212" y="85" class="st0" width="1.1" height="6"/>
		</g>
	</g>
	<g>
		<g>
			<rect x="230.7" y="83.4" class="st0" width="1.1" height="3.4"/>
		</g>
		<g>
			<rect x="230.7" y="85" class="st0" width="1.1" height="1.7"/>
		</g>
	</g>
	<g>
		<g>
			<rect x="183.9" y="77.5" class="st0" width="1.1" height="15"/>
		</g>
		<g>
			<rect x="183.9" y="85" class="st0" width="1.1" height="7.5"/>
		</g>
	</g>
	<g>
		<g>
			<rect x="193.3" y="80.6" class="st0" width="1.1" height="9"/>
		</g>
		<g>
			<rect x="193.3" y="84.9" class="st0" width="1.1" height="4.6"/>
		</g>
	</g>
	<g>
		<g>
			<rect x="202.6" y="82.1" class="st0" width="1.1" height="5.9"/>
		</g>
		<g>
			<rect x="202.6" y="84.9" class="st0" width="1.1" height="3.1"/>
		</g>
	</g>
	<g>
		<g>
			<rect x="99.6" y="82.4" class="st0" width="1.1" height="5.2"/>
		</g>
		<g>
			<rect x="99.6" y="85" class="st0" width="1.1" height="2.6"/>
		</g>
	</g>
	<g>
		<g>
			<rect x="109" y="82.9" class="st0" width="1.1" height="4.6"/>
		</g>
		<g>
			<rect x="109" y="85" class="st0" width="1.1" height="2.5"/>
		</g>
	</g>
	<g>
		<g>
			<rect x="90.2" y="79.9" class="st0" width="1.1" height="10.2"/>
		</g>
		<g>
			<rect x="90.2" y="85" class="st0" width="1.1" height="5.2"/>
		</g>
	</g>
	<g>
		<g>
			<rect x="80.9" y="81.3" class="st0" width="1.1" height="7.4"/>
		</g>
		<g>
			<rect x="80.9" y="85" class="st0" width="1.1" height="3.8"/>
		</g>
	</g>
	<g>
		<g>
			<rect x="71.5" y="78" class="st0" width="1.1" height="14.1"/>
		</g>
		<g>
			<rect x="71.5" y="85" class="st0" width="1.1" height="7.1"/>
		</g>
	</g>
	<g>
		<g>
			<rect x="62.1" y="76.1" class="st0" width="1.1" height="17.8"/>
		</g>
		<g>
			<rect x="62.1" y="85" class="st0" width="1.1" height="9"/>
		</g>
	</g>
	<g>
		<g>
			<rect x="52.8" y="79" class="st0" width="1.1" height="12.1"/>
		</g>
		<g>
			<rect x="52.8" y="85" class="st0" width="1.1" height="6.1"/>
		</g>
	</g>
	<g>
		<g>
			<rect x="43.4" y="79.1" class="st0" width="1.1" height="11.9"/>
		</g>
		<g>
			<rect x="43.4" y="85" class="st0" width="1.1" height="6.1"/>
		</g>
	</g>
	<g>
		<g>
			<rect x="34" y="81.1" class="st0" width="1.1" height="8"/>
		</g>
		<g>
			<rect x="34" y="85" class="st0" width="1.1" height="4.1"/>
		</g>
	</g>
	<g>
		<g>
			<rect x="24.7" y="82.7" class="st0" width="1.1" height="4.8"/>
		</g>
		<g>
			<rect x="24.7" y="85" class="st0" width="1.1" height="2.4"/>
		</g>
	</g>
	<g>
		<rect x="17.2" y="85" class="st0" width="1.1" height="2.3"/>
	</g>
	<g>
		<path class="st0" d="M67.9,30.8c0.3-0.3,0.5-0.7,0.6-1c0.1-0.3,0.2-0.4,0.4-0.4c0.1,0,0.2,0.1,0.3,0.2c0.1,0.4,0.2,1.3,0.4,2.6
			l0.4,3.3c0,0.2-0.1,0.3-0.4,0.3c-0.1,0-0.3-0.1-0.4-0.4c-0.6-1.5-1.6-2.8-2.8-3.9c-1.2-1-2.6-1.5-4-1.5c-1.4,0-2.5,0.4-3.2,1.3
			c-0.7,0.9-1.1,1.8-1.1,2.7c0,1.2,0.4,2.1,1.2,2.7c0.8,0.6,2.4,1.3,4.9,2.1c1.8,0.6,3.2,1.1,4.1,1.6c0.9,0.5,1.7,1.3,2.3,2.2
			c0.6,1,0.9,2,0.9,3.1c0,1.9-0.8,3.5-2.3,5c-1.5,1.5-3.4,2.2-5.7,2.2c-2,0-4.1-0.6-6.1-1.9c-0.4,0.3-0.7,0.7-0.8,1.2
			c-0.1,0.4-0.2,0.6-0.5,0.6c-0.2,0-0.3-0.2-0.4-0.7c-0.1-0.5-0.3-2.8-0.5-6.9c0-0.1,0.2-0.2,0.4-0.2c0.2,0,0.3,0.1,0.4,0.4
			c1.8,4.6,4.4,6.9,7.6,6.9c1.6,0,2.9-0.5,3.8-1.5c0.9-1,1.4-2.1,1.4-3.4c0-0.9-0.2-1.7-0.7-2.4c-0.5-0.7-1.1-1.3-2-1.8
			s-2.1-1-3.8-1.5c-2.2-0.7-3.8-1.4-4.6-2c-0.8-0.6-1.4-1.4-1.8-2.2c-0.4-0.8-0.6-1.6-0.6-2.3c0-1.6,0.7-3,2.1-4.2
			c1.4-1.2,3.2-1.8,5.2-1.8c0.8,0,1.6,0.1,2.5,0.4C66.1,29.9,67,30.3,67.9,30.8z"/>
		<path class="st0" d="M77.2,44.5c0,0.6-0.1,1.1-0.1,1.4c0,1.7,0.5,3.1,1.5,4.3s2.2,1.7,3.7,1.7c1.4,0,2.7-0.6,4-1.7
			c0.4-0.3,0.6-0.5,0.7-0.5c0.2,0,0.3,0.2,0.3,0.5c-0.4,0.8-1.2,1.5-2.3,2.1c-1.1,0.6-2.3,0.9-3.6,0.9c-2,0-3.6-0.7-5-2.1
			c-1.4-1.4-2-3.2-2-5.4c0-2.3,0.7-4.3,2.2-5.8c1.5-1.5,3.1-2.3,4.8-2.3c1.6,0,3,0.6,4.3,1.8c1.3,1.2,1.9,2.6,1.9,4.3
			c0,0.2,0,0.4-0.1,0.5s-0.5,0.2-1.4,0.2L77.2,44.5z M77.2,43.5c1.5,0.1,3,0.1,4.5,0.1l0.9-0.1c0.7,0,1.3-0.2,1.6-0.4
			c0.4-0.3,0.6-0.7,0.6-1.3c0-1-0.3-1.9-1-2.6c-0.7-0.7-1.5-1.1-2.4-1.1c-0.9,0-1.7,0.4-2.6,1.3C78,40.2,77.4,41.6,77.2,43.5z"/>
		<path class="st0" d="M94.5,37.6c0.3,0.7,0.5,1.9,0.5,3.5c0.7-1.2,1.5-2,2.4-2.6c0.9-0.6,1.9-0.9,2.9-0.9c0.8,0,1.6,0.2,2.3,0.5
			c0.8,0.3,1.3,0.8,1.7,1.6c0.4,0.7,0.6,2,0.6,3.8l-0.1,6c0,1.1,0.1,1.8,0.3,2.1c0.2,0.3,0.6,0.5,1.2,0.7c0.4,0.1,0.6,0.2,0.6,0.4
			c0,0.2-0.1,0.3-0.3,0.3c-0.1,0-0.2,0-0.2,0c-0.5-0.1-1.3-0.2-2.4-0.2c-1,0-2,0-3.1,0.1c-0.4,0-0.7-0.1-0.7-0.3
			c0-0.1,0.1-0.2,0.4-0.3c0.7-0.1,1.1-0.3,1.3-0.4c0.2-0.2,0.3-0.4,0.4-0.6c0.1-0.3,0.2-1.1,0.2-2.6c0.1-1.5,0.1-2.6,0.1-3.5
			c0-2.5-0.3-4.1-0.9-5c-0.6-0.8-1.4-1.2-2.3-1.2c-1.4,0-2.5,0.7-3.4,2.2c-0.9,1.5-1.4,4-1.4,7.5c0,1.6,0.1,2.6,0.3,3
			c0.2,0.4,0.7,0.7,1.6,0.8c0.3,0,0.4,0.1,0.4,0.3c0,0.2-0.1,0.2-0.4,0.2l-0.9-0.1c-0.3,0-1.4,0-3.3,0l-1.4,0
			c-0.5,0-0.8-0.1-0.8-0.3c0-0.2,0.3-0.4,0.8-0.5c0.5-0.1,0.9-0.3,1.1-0.6c0.2-0.3,0.3-1.2,0.4-2.7s0.1-3.4,0.1-5.6
			c0-2.1-0.1-3.4-0.4-3.9c-0.3-0.5-0.7-0.8-1.2-0.9c-0.5-0.1-0.7-0.3-0.7-0.4c0-0.2,0.2-0.3,0.5-0.3l1.4,0
			C92.2,37.6,93,37.6,94.5,37.6z"/>
		<path class="st0" d="M115.2,39.1c-0.2,2.6-0.2,5.2-0.2,7.7c0,1.9,0.2,3.2,0.7,3.8s1.1,0.9,2,0.9c0.6,0,1.3-0.2,2.1-0.7
			c0.3-0.2,0.4-0.2,0.5-0.2c0.2,0,0.2,0.1,0.2,0.2c0,0.3-0.4,0.7-1.3,1.3s-1.9,0.9-3.1,0.9c-1.2,0-2.1-0.4-2.7-1.3s-0.9-2.1-0.9-3.8
			c0-1.7,0.1-4.7,0.3-8.9c-0.1,0-0.6-0.1-1.7-0.1l-1.1-0.1c-0.3,0-0.4-0.1-0.4-0.3c0-0.2,0.1-0.3,0.4-0.4c0.5-0.2,1.3-0.7,2.4-1.6
			c1.1-0.9,1.8-2.1,2-3.6c0-0.4,0.2-0.6,0.4-0.6c0.2,0,0.3,0.2,0.3,0.5c0,0.1,0,0.2,0,0.3c0,0.5-0.1,1-0.1,1.6l0,2.8l3.9-0.1
			c0.7,0,1,0.1,1,0.2c0,0.5-0.1,0.9-0.3,1C119.2,38.9,117.7,39,115.2,39.1z"/>
		<path class="st0" d="M122.4,45.3c0-2.1,0.8-3.9,2.3-5.5c1.5-1.6,3.3-2.4,5.5-2.4c2.1,0,3.8,0.7,5.3,2.1c1.5,1.4,2.2,3.2,2.2,5.3
			c0,2.1-0.8,4-2.3,5.7c-1.6,1.6-3.4,2.4-5.5,2.4c-2.1,0-3.8-0.7-5.3-2.2C123.1,49.3,122.4,47.5,122.4,45.3z M125.3,45.2
			c0,2,0.5,3.7,1.4,5.1c0.9,1.3,2.1,2,3.5,2c1.3,0,2.4-0.6,3.3-1.9c1-1.3,1.4-2.9,1.4-5c0-1.9-0.5-3.5-1.4-5s-2.1-2.2-3.6-2.2
			c-1.4,0-2.5,0.7-3.4,2C125.7,41.5,125.3,43.2,125.3,45.2z"/>
		<path class="st0" d="M153.3,30.8c0.3-0.3,0.5-0.7,0.6-1c0.1-0.3,0.2-0.4,0.4-0.4c0.1,0,0.2,0.1,0.3,0.2c0.1,0.4,0.2,1.3,0.4,2.6
			l0.4,3.3c0,0.2-0.1,0.3-0.4,0.3c-0.1,0-0.3-0.1-0.4-0.4c-0.6-1.5-1.6-2.8-2.8-3.9c-1.2-1-2.6-1.5-4-1.5c-1.4,0-2.5,0.4-3.2,1.3
			c-0.7,0.9-1.1,1.8-1.1,2.7c0,1.2,0.4,2.1,1.2,2.7c0.8,0.6,2.4,1.3,4.9,2.1c1.8,0.6,3.2,1.1,4.1,1.6c0.9,0.5,1.7,1.3,2.3,2.2
			c0.6,1,0.9,2,0.9,3.1c0,1.9-0.8,3.5-2.3,5c-1.5,1.5-3.4,2.2-5.7,2.2c-2,0-4.1-0.6-6.1-1.9c-0.4,0.3-0.7,0.7-0.8,1.2
			c-0.1,0.4-0.2,0.6-0.5,0.6c-0.2,0-0.3-0.2-0.4-0.7c-0.1-0.5-0.3-2.8-0.5-6.9c0-0.1,0.2-0.2,0.4-0.2c0.2,0,0.3,0.1,0.4,0.4
			c1.8,4.6,4.4,6.9,7.6,6.9c1.6,0,2.9-0.5,3.8-1.5c0.9-1,1.4-2.1,1.4-3.4c0-0.9-0.2-1.7-0.7-2.4c-0.5-0.7-1.1-1.3-2-1.8
			s-2.1-1-3.8-1.5c-2.2-0.7-3.8-1.4-4.6-2c-0.8-0.6-1.4-1.4-1.8-2.2c-0.4-0.8-0.6-1.6-0.6-2.3c0-1.6,0.7-3,2.1-4.2
			c1.4-1.2,3.2-1.8,5.2-1.8c0.8,0,1.6,0.1,2.5,0.4C151.5,29.9,152.4,30.3,153.3,30.8z"/>
		<path class="st0" d="M159.6,45.6c0-2.2,0.7-4.1,2.1-5.7c1.4-1.6,3.1-2.4,5.1-2.4c1.3,0,2.5,0.3,3.7,0.9s1.8,1.4,1.8,2.4
			c0,0.4-0.1,0.7-0.3,1s-0.5,0.4-0.8,0.4c-0.7,0-1.2-0.5-1.5-1.6c-0.5-1.6-1.5-2.4-2.9-2.4c-1.3,0-2.4,0.6-3.1,1.7
			c-0.7,1.2-1.1,2.7-1.1,4.6c0,2.2,0.5,4,1.5,5.5s2.2,2.1,3.5,2.1c0.9,0,1.8-0.4,2.6-1.1c0.8-0.7,1.3-1.5,1.5-2.6
			c0.1-0.3,0.2-0.5,0.4-0.5c0.2,0,0.3,0.1,0.3,0.3c0,1.2-0.5,2.2-1.6,3.3c-1.1,1-2.5,1.5-4.3,1.5c-2,0-3.6-0.7-4.9-2.2
			C160.3,49.3,159.6,47.5,159.6,45.6z"/>
		<path class="st0" d="M180.1,41.5c0.7-1.3,1.5-2.3,2.4-3c0.8-0.7,1.7-1,2.7-1c0.7,0,1.2,0.2,1.7,0.7c0.5,0.5,0.7,1,0.7,1.6
			c0,1.1-0.5,1.7-1.4,1.7c-0.4,0-0.8-0.3-1.1-0.9c-0.4-0.8-0.9-1.2-1.5-1.2c-0.6,0-1.2,0.3-1.8,1c-0.6,0.7-1,1.4-1.3,2.2
			c-0.2,0.8-0.3,2.4-0.3,4.9c0,2.3,0.1,3.6,0.3,4c0.2,0.3,0.7,0.6,1.5,0.6c0.2,0,0.3,0.1,0.3,0.2c0,0.2-0.3,0.4-0.8,0.4h-5.7
			c-0.4,0-0.6-0.1-0.6-0.3c0-0.2,0.3-0.3,0.8-0.3c0.7,0,1.2-0.3,1.4-0.7s0.3-1.9,0.3-4.6c0-3.9-0.1-6.2-0.2-7
			c-0.2-0.8-0.8-1.2-1.8-1.2c-0.4,0-0.6-0.1-0.6-0.3c0-0.1,0-0.2,0.1-0.2c0.1-0.1,0.6-0.1,1.6-0.2l3.3-0.2
			C179.9,38.3,180,39.6,180.1,41.5z"/>
		<path class="st0" d="M194.8,37.5l0,4l0,3.7V48l0,2.1c0,0.9,0.1,1.4,0.4,1.6c0.3,0.2,0.7,0.4,1.3,0.4c0.6,0,1,0.2,1,0.4
			c0,0.2-0.1,0.3-0.4,0.3c-0.1,0-0.2,0-0.3,0c-1.1-0.1-2.1-0.2-3.1-0.2c-1.5,0-2.6,0-3.1,0.1c-0.1,0-0.2,0-0.4,0
			c-0.3,0-0.4-0.1-0.4-0.3s0.3-0.4,1-0.4c0.7-0.1,1.1-0.2,1.3-0.4c0.2-0.2,0.3-0.8,0.3-1.8l0.1-7.3c0-2-0.1-3.1-0.4-3.5
			c-0.3-0.4-0.9-0.6-1.7-0.6c-0.3,0-0.4-0.1-0.4-0.3c0-0.1,0-0.2,0.1-0.2c0.1-0.1,0.8-0.1,2.1-0.2C193.3,37.6,194.2,37.5,194.8,37.5
			z M192.8,28.8c0.4,0,0.9,0.2,1.2,0.5s0.5,0.7,0.5,1.1c0,0.5-0.1,0.9-0.4,1.2c-0.3,0.3-0.7,0.5-1.2,0.5c-0.4,0-0.9-0.1-1.2-0.4
			c-0.4-0.3-0.5-0.7-0.5-1.2c0-0.5,0.2-0.9,0.5-1.2C191.9,29,192.3,28.8,192.8,28.8z"/>
		<path class="st0" d="M208.4,49.6c2.5-5.6,3.8-9,3.8-10.3c0-0.5-0.3-0.8-1-0.9c-0.4,0-0.6-0.1-0.6-0.3c0-0.2,0.1-0.4,0.4-0.4l2.7,0
			l1.6,0c0.4,0,0.6,0.1,0.6,0.4c0,0.2-0.1,0.3-0.4,0.3c-1,0.1-1.7,0.5-2.1,1.2s-1,2-1.8,3.9c-1.3,3.2-2.2,5.4-2.7,6.6
			c-0.6,1.1-0.9,1.9-1,2.2c-0.1,0.4-0.3,0.6-0.5,0.6c-0.1,0-0.3-0.2-0.5-0.7l-2.1-4.6l-2.2-4.9c-0.7-1.7-1.3-2.8-1.6-3.2
			c-0.3-0.5-0.6-0.8-0.7-0.9c-0.2-0.1-0.4-0.2-0.9-0.3c-0.3,0-0.4-0.2-0.4-0.3c0-0.2,0.2-0.4,0.5-0.4l3.1,0c1.5,0,2.3,0,2.4,0
			c0.4,0,0.6,0.1,0.6,0.3c0,0.2-0.2,0.3-0.6,0.4c-0.6,0.1-0.9,0.4-0.9,0.9C204.1,40.3,205.5,43.7,208.4,49.6z"/>
		<path class="st0" d="M216.6,45.3c0-2.1,0.8-3.9,2.3-5.5c1.5-1.6,3.3-2.4,5.5-2.4c2.1,0,3.8,0.7,5.3,2.1c1.5,1.4,2.2,3.2,2.2,5.3
			c0,2.1-0.8,4-2.3,5.7c-1.6,1.6-3.4,2.4-5.5,2.4c-2.1,0-3.8-0.7-5.3-2.2C217.4,49.3,216.6,47.5,216.6,45.3z M219.5,45.2
			c0,2,0.5,3.7,1.4,5.1c0.9,1.3,2.1,2,3.5,2c1.3,0,2.4-0.6,3.3-1.9c1-1.3,1.4-2.9,1.4-5c0-1.9-0.5-3.5-1.4-5s-2.1-2.2-3.6-2.2
			c-1.4,0-2.5,0.7-3.4,2C219.9,41.5,219.5,43.2,219.5,45.2z"/>
	</g>
	<g>
		<path class="st0" d="M56.9,58.1l0.9,0c1.1,0,2,0.3,2.5,0.8c0.6,0.5,0.9,1.2,0.9,2.1c0,0.6-0.1,1.1-0.4,1.5c-0.3,0.4-0.6,0.8-1,1
			c-0.4,0.2-1,0.3-1.7,0.3c-0.2,0-0.4,0-0.6,0c-0.4,0-0.7-0.1-0.7-0.1c-0.9,0-1.5,0-1.7,0c-0.1,0-0.1,0-0.1-0.1c0,0,0-0.1,0.1-0.1
			c0,0,0.1,0,0.3-0.1c0.2,0,0.4-0.1,0.5-0.3c0.1-0.2,0.2-0.6,0.2-1.4l0.1-2.3c0-0.3,0-0.5-0.1-0.8c0-0.2-0.1-0.4-0.2-0.5
			c-0.1-0.1-0.2-0.1-0.4-0.1c-0.1,0-0.2,0-0.2-0.1c0-0.1,0-0.1,0.1-0.1c0.1,0,0.2,0,0.5,0C56.2,58.1,56.6,58.1,56.9,58.1z
			 M56.8,62.3c0,0.4,0,0.6,0.1,0.8c0,0.2,0.2,0.3,0.3,0.4c0.2,0.1,0.4,0.2,0.8,0.2c0.5,0,0.9-0.1,1.3-0.4c0.3-0.2,0.6-0.6,0.8-1
			c0.2-0.4,0.3-0.8,0.3-1.3c0-0.7-0.2-1.3-0.6-1.9s-1.1-0.8-1.9-0.8c-0.4,0-0.6,0-0.7,0s-0.1,0.1-0.1,0.2c0,0.1,0,0.3,0,0.6
			c0,0.4,0,0.7-0.1,1l0,1.2C56.8,61.9,56.8,62.2,56.8,62.3z"/>
		<path class="st0" d="M63.1,60.1l0,1l0,0.9v0.7l0,0.5c0,0.2,0,0.3,0.1,0.4c0.1,0.1,0.2,0.1,0.3,0.1c0.2,0,0.2,0,0.2,0.1
			c0,0,0,0.1-0.1,0.1c0,0,0,0-0.1,0c-0.3,0-0.5-0.1-0.7-0.1c-0.4,0-0.6,0-0.8,0c0,0-0.1,0-0.1,0c-0.1,0-0.1,0-0.1-0.1
			s0.1-0.1,0.2-0.1c0.2,0,0.3-0.1,0.3-0.1s0.1-0.2,0.1-0.4l0-1.8c0-0.5,0-0.8-0.1-0.8c-0.1-0.1-0.2-0.1-0.4-0.1
			c-0.1,0-0.1,0-0.1-0.1c0,0,0,0,0-0.1c0,0,0.2,0,0.5-0.1S63,60.1,63.1,60.1z M62.6,58c0.1,0,0.2,0,0.3,0.1c0.1,0.1,0.1,0.2,0.1,0.3
			c0,0.1,0,0.2-0.1,0.3s-0.2,0.1-0.3,0.1c-0.1,0-0.2,0-0.3-0.1s-0.1-0.2-0.1-0.3c0-0.1,0-0.2,0.1-0.3C62.4,58,62.5,58,62.6,58z"/>
		<path class="st0" d="M65.4,61c0.2-0.3,0.4-0.6,0.6-0.7s0.4-0.2,0.6-0.2c0.2,0,0.3,0.1,0.4,0.2s0.2,0.2,0.2,0.4
			c0,0.3-0.1,0.4-0.3,0.4c-0.1,0-0.2-0.1-0.3-0.2c-0.1-0.2-0.2-0.3-0.4-0.3c-0.1,0-0.3,0.1-0.4,0.2c-0.2,0.2-0.3,0.3-0.3,0.5
			c-0.1,0.2-0.1,0.6-0.1,1.2c0,0.6,0,0.9,0.1,1c0,0.1,0.2,0.1,0.4,0.2c0.1,0,0.1,0,0.1,0.1c0,0.1-0.1,0.1-0.2,0.1h-1.4
			c-0.1,0-0.1,0-0.1-0.1c0,0,0.1-0.1,0.2-0.1c0.2,0,0.3-0.1,0.3-0.2s0.1-0.5,0.1-1.1c0-0.9,0-1.5-0.1-1.7c0-0.2-0.2-0.3-0.4-0.3
			c-0.1,0-0.2,0-0.2-0.1c0,0,0,0,0-0.1c0,0,0.2,0,0.4,0l0.8,0C65.3,60.3,65.4,60.6,65.4,61z"/>
		<path class="st0" d="M68.4,61.7c0,0.1,0,0.3,0,0.3c0,0.4,0.1,0.8,0.4,1c0.2,0.3,0.5,0.4,0.9,0.4c0.3,0,0.7-0.1,1-0.4
			c0.1-0.1,0.1-0.1,0.2-0.1c0,0,0.1,0,0.1,0.1c-0.1,0.2-0.3,0.4-0.6,0.5c-0.3,0.1-0.6,0.2-0.9,0.2c-0.5,0-0.9-0.2-1.2-0.5
			c-0.3-0.3-0.5-0.8-0.5-1.3c0-0.6,0.2-1,0.5-1.4c0.4-0.4,0.8-0.6,1.2-0.6c0.4,0,0.7,0.1,1,0.4c0.3,0.3,0.5,0.6,0.5,1
			c0,0.1,0,0.1,0,0.1s-0.1,0-0.3,0L68.4,61.7z M68.4,61.5c0.4,0,0.7,0,1.1,0l0.2,0c0.2,0,0.3,0,0.4-0.1s0.1-0.2,0.1-0.3
			c0-0.2-0.1-0.5-0.2-0.6c-0.2-0.2-0.4-0.3-0.6-0.3c-0.2,0-0.4,0.1-0.6,0.3C68.6,60.7,68.4,61.1,68.4,61.5z"/>
		<path class="st0" d="M71.9,63c0.1,0,0.3,0.1,0.4,0.2s0.2,0.3,0.2,0.5c0,0.2-0.1,0.5-0.2,0.8c-0.2,0.3-0.3,0.4-0.5,0.6
			s-0.3,0.2-0.3,0.2c0,0-0.1,0-0.1-0.1c0,0,0-0.1,0.1-0.1c0.1-0.1,0.3-0.2,0.4-0.4C72,64.4,72,64.2,72,64c0-0.1-0.1-0.2-0.2-0.2
			c-0.2,0-0.3-0.1-0.4-0.2c-0.1-0.1-0.1-0.2-0.1-0.3c0-0.1,0-0.2,0.1-0.3S71.7,63,71.9,63z"/>
		<path class="st0" d="M78.5,58.4c0.1-0.1,0.1-0.2,0.2-0.2c0-0.1,0.1-0.1,0.1-0.1c0,0,0,0,0.1,0c0,0.1,0,0.3,0.1,0.6l0.1,0.8
			c0,0.1,0,0.1-0.1,0.1c0,0-0.1,0-0.1-0.1c-0.2-0.4-0.4-0.7-0.7-0.9c-0.3-0.2-0.6-0.4-1-0.4c-0.3,0-0.6,0.1-0.8,0.3
			c-0.2,0.2-0.3,0.4-0.3,0.7c0,0.3,0.1,0.5,0.3,0.7c0.2,0.2,0.6,0.3,1.2,0.5c0.4,0.1,0.8,0.3,1,0.4c0.2,0.1,0.4,0.3,0.6,0.5
			c0.1,0.2,0.2,0.5,0.2,0.7c0,0.5-0.2,0.9-0.6,1.2c-0.4,0.4-0.8,0.5-1.4,0.5c-0.5,0-1-0.2-1.5-0.5c-0.1,0.1-0.2,0.2-0.2,0.3
			c0,0.1-0.1,0.1-0.1,0.1c0,0-0.1-0.1-0.1-0.2c0-0.1-0.1-0.7-0.1-1.7c0,0,0-0.1,0.1-0.1c0,0,0.1,0,0.1,0.1c0.4,1.1,1.1,1.7,1.8,1.7
			c0.4,0,0.7-0.1,0.9-0.4c0.2-0.2,0.3-0.5,0.3-0.8c0-0.2-0.1-0.4-0.2-0.6c-0.1-0.2-0.3-0.3-0.5-0.4s-0.5-0.2-0.9-0.4
			c-0.5-0.2-0.9-0.3-1.1-0.5s-0.3-0.3-0.4-0.5s-0.1-0.4-0.1-0.6c0-0.4,0.2-0.7,0.5-1c0.3-0.3,0.8-0.4,1.3-0.4c0.2,0,0.4,0,0.6,0.1
			C78.1,58.2,78.3,58.3,78.5,58.4z"/>
		<path class="st0" d="M81.4,60.4c0,0.6-0.1,1.3-0.1,1.9c0,0.5,0.1,0.8,0.2,0.9c0.1,0.1,0.3,0.2,0.5,0.2c0.2,0,0.3-0.1,0.5-0.2
			c0.1,0,0.1-0.1,0.1-0.1c0,0,0.1,0,0.1,0.1c0,0.1-0.1,0.2-0.3,0.3s-0.5,0.2-0.8,0.2c-0.3,0-0.5-0.1-0.7-0.3s-0.2-0.5-0.2-0.9
			c0-0.4,0-1.1,0.1-2.2c0,0-0.2,0-0.4,0l-0.3,0c-0.1,0-0.1,0-0.1-0.1c0,0,0-0.1,0.1-0.1c0.1,0,0.3-0.2,0.6-0.4
			c0.3-0.2,0.4-0.5,0.5-0.9c0-0.1,0-0.2,0.1-0.2s0.1,0,0.1,0.1c0,0,0,0.1,0,0.1c0,0.1,0,0.2,0,0.4l0,0.7l0.9,0c0.2,0,0.2,0,0.2,0.1
			c0,0.1,0,0.2-0.1,0.2C82.3,60.4,82,60.4,81.4,60.4z"/>
		<path class="st0" d="M83.8,61.7c0,0.1,0,0.3,0,0.3c0,0.4,0.1,0.8,0.4,1c0.2,0.3,0.5,0.4,0.9,0.4c0.3,0,0.7-0.1,1-0.4
			C86,63,86.1,63,86.1,63c0,0,0.1,0,0.1,0.1c-0.1,0.2-0.3,0.4-0.6,0.5c-0.3,0.1-0.6,0.2-0.9,0.2c-0.5,0-0.9-0.2-1.2-0.5
			C83.2,63,83,62.5,83,62c0-0.6,0.2-1,0.5-1.4c0.4-0.4,0.8-0.6,1.2-0.6c0.4,0,0.7,0.1,1,0.4c0.3,0.3,0.5,0.6,0.5,1
			c0,0.1,0,0.1,0,0.1s-0.1,0-0.3,0L83.8,61.7z M83.8,61.5c0.4,0,0.7,0,1.1,0l0.2,0c0.2,0,0.3,0,0.4-0.1s0.1-0.2,0.1-0.3
			c0-0.2-0.1-0.5-0.2-0.6c-0.2-0.2-0.4-0.3-0.6-0.3c-0.2,0-0.4,0.1-0.6,0.3C83.9,60.7,83.8,61.1,83.8,61.5z"/>
		<path class="st0" d="M87.9,60.1c0.1,0.2,0.1,0.5,0.1,0.9c0.2-0.3,0.4-0.5,0.6-0.6c0.2-0.1,0.5-0.2,0.7-0.2c0.2,0,0.4,0,0.6,0.1
			c0.2,0.1,0.3,0.2,0.4,0.4s0.1,0.5,0.1,0.9l0,1.4c0,0.3,0,0.4,0.1,0.5c0,0.1,0.1,0.1,0.3,0.2c0.1,0,0.2,0.1,0.2,0.1
			c0,0,0,0.1-0.1,0.1c0,0,0,0-0.1,0c-0.1,0-0.3,0-0.6,0c-0.2,0-0.5,0-0.7,0c-0.1,0-0.2,0-0.2-0.1c0,0,0-0.1,0.1-0.1
			c0.2,0,0.3-0.1,0.3-0.1s0.1-0.1,0.1-0.1c0-0.1,0-0.3,0-0.6c0-0.4,0-0.6,0-0.9c0-0.6-0.1-1-0.2-1.2s-0.3-0.3-0.6-0.3
			c-0.3,0-0.6,0.2-0.8,0.5c-0.2,0.4-0.3,1-0.3,1.8c0,0.4,0,0.6,0.1,0.7c0,0.1,0.2,0.2,0.4,0.2c0.1,0,0.1,0,0.1,0.1
			c0,0,0,0.1-0.1,0.1l-0.2,0c-0.1,0-0.3,0-0.8,0l-0.3,0c-0.1,0-0.2,0-0.2-0.1c0,0,0.1-0.1,0.2-0.1c0.1,0,0.2-0.1,0.3-0.1
			c0-0.1,0.1-0.3,0.1-0.6c0-0.4,0-0.8,0-1.4c0-0.5,0-0.8-0.1-0.9s-0.2-0.2-0.3-0.2c-0.1,0-0.2-0.1-0.2-0.1c0,0,0-0.1,0.1-0.1l0.3,0
			C87.3,60.1,87.5,60.1,87.9,60.1z"/>
		<path class="st0" d="M91.5,62c0-0.5,0.2-0.9,0.5-1.3c0.4-0.4,0.8-0.6,1.3-0.6c0.5,0,0.9,0.2,1.3,0.5c0.4,0.3,0.5,0.8,0.5,1.3
			c0,0.5-0.2,1-0.6,1.4c-0.4,0.4-0.8,0.6-1.3,0.6c-0.5,0-0.9-0.2-1.3-0.5C91.7,62.9,91.5,62.5,91.5,62z M92.2,61.9
			c0,0.5,0.1,0.9,0.3,1.2c0.2,0.3,0.5,0.5,0.8,0.5c0.3,0,0.6-0.2,0.8-0.5s0.4-0.7,0.4-1.2c0-0.5-0.1-0.9-0.3-1.2s-0.5-0.5-0.9-0.5
			c-0.3,0-0.6,0.2-0.8,0.5C92.3,61,92.2,61.4,92.2,61.9z"/>
		<path class="st0" d="M97.1,60.4c0,0.6-0.1,1.3-0.1,1.9c0,0.5,0.1,0.8,0.2,0.9c0.1,0.1,0.3,0.2,0.5,0.2c0.2,0,0.3-0.1,0.5-0.2
			c0.1,0,0.1-0.1,0.1-0.1c0,0,0.1,0,0.1,0.1c0,0.1-0.1,0.2-0.3,0.3s-0.5,0.2-0.8,0.2c-0.3,0-0.5-0.1-0.7-0.3s-0.2-0.5-0.2-0.9
			c0-0.4,0-1.1,0.1-2.2c0,0-0.2,0-0.4,0l-0.3,0c-0.1,0-0.1,0-0.1-0.1c0,0,0-0.1,0.1-0.1c0.1,0,0.3-0.2,0.6-0.4
			c0.3-0.2,0.4-0.5,0.5-0.9c0-0.1,0-0.2,0.1-0.2s0.1,0,0.1,0.1c0,0,0,0.1,0,0.1c0,0.1,0,0.2,0,0.4l0,0.7l0.9,0c0.2,0,0.2,0,0.2,0.1
			c0,0.1,0,0.2-0.1,0.2C98.1,60.4,97.7,60.4,97.1,60.4z"/>
		<path class="st0" d="M100,60.1l0,1l0,0.9v0.7l0,0.5c0,0.2,0,0.3,0.1,0.4c0.1,0.1,0.2,0.1,0.3,0.1c0.2,0,0.2,0,0.2,0.1
			c0,0,0,0.1-0.1,0.1c0,0,0,0-0.1,0c-0.3,0-0.5-0.1-0.7-0.1c-0.4,0-0.6,0-0.8,0c0,0-0.1,0-0.1,0c-0.1,0-0.1,0-0.1-0.1
			s0.1-0.1,0.2-0.1c0.2,0,0.3-0.1,0.3-0.1s0.1-0.2,0.1-0.4l0-1.8c0-0.5,0-0.8-0.1-0.8c-0.1-0.1-0.2-0.1-0.4-0.1
			c-0.1,0-0.1,0-0.1-0.1c0,0,0,0,0-0.1c0,0,0.2,0,0.5-0.1S99.9,60.1,100,60.1z M99.5,58c0.1,0,0.2,0,0.3,0.1
			c0.1,0.1,0.1,0.2,0.1,0.3c0,0.1,0,0.2-0.1,0.3s-0.2,0.1-0.3,0.1c-0.1,0-0.2,0-0.3-0.1s-0.1-0.2-0.1-0.3c0-0.1,0-0.2,0.1-0.3
			C99.3,58,99.4,58,99.5,58z"/>
		<path class="st0" d="M102.2,60.1c0,0.1,0,0.2,0,0.3c0,0.1,0,0.2,0,0.4c0.3-0.3,0.5-0.4,0.7-0.5c0.2-0.1,0.3-0.1,0.5-0.1
			c0.4,0,0.8,0.2,1.1,0.5c0.3,0.4,0.5,0.8,0.5,1.3c0,0.5-0.2,1-0.5,1.3c-0.4,0.3-0.8,0.5-1.2,0.5c-0.3,0-0.7-0.1-1-0.3
			c0,0.4-0.1,0.7-0.1,1.2c0,0.2,0,0.4,0,0.6l0,0.2c0.1,0.2,0.2,0.3,0.4,0.3c0.1,0,0.1,0,0.1,0.1l0,0l0,0c-0.4,0-0.6,0-0.8,0
			c-0.5,0-0.8,0-0.9,0c-0.1,0-0.1,0-0.1-0.1c0,0,0-0.1,0.1-0.1c0.3,0,0.4-0.1,0.5-0.2s0.1-0.5,0.1-1.2c0-0.7,0-1.2,0-1.4l0-1.2
			l0-0.7c0-0.4,0-0.6-0.1-0.7c0-0.1-0.2-0.2-0.4-0.2c-0.1,0-0.1,0-0.1-0.1c0,0,0,0,0-0.1c0,0,0.2,0,0.4,0L102.2,60.1z M102.2,62
			c0,0.5,0,0.9,0,1c0,0.1,0.1,0.3,0.3,0.4s0.4,0.2,0.6,0.2c0.3,0,0.6-0.1,0.8-0.4c0.2-0.3,0.3-0.7,0.3-1.1c0-0.5-0.1-0.9-0.3-1.2
			c-0.2-0.3-0.5-0.4-0.8-0.4c-0.3,0-0.5,0.1-0.7,0.4C102.3,61,102.2,61.4,102.2,62z"/>
		<path class="st0" d="M107.7,63.2c-0.1,0.2-0.3,0.4-0.5,0.5c-0.2,0.1-0.4,0.2-0.7,0.2c-0.3,0-0.5-0.1-0.7-0.2
			c-0.2-0.2-0.2-0.4-0.2-0.6c0-0.2,0-0.4,0.1-0.5c0.1-0.2,0.2-0.3,0.3-0.4c0.1-0.1,0.4-0.2,0.7-0.3c0.5-0.2,0.7-0.3,0.8-0.4
			c0.1-0.1,0.1-0.2,0.1-0.4c0-0.3-0.1-0.5-0.2-0.6c-0.1-0.1-0.3-0.2-0.5-0.2c-0.2,0-0.3,0-0.4,0.1c-0.1,0.1-0.2,0.2-0.2,0.5
			c-0.1,0.3-0.2,0.4-0.3,0.4c-0.1,0-0.1,0-0.2-0.1c-0.1-0.1-0.1-0.2-0.1-0.3c0-0.2,0.1-0.4,0.4-0.6c0.2-0.2,0.6-0.2,1-0.2
			c0.3,0,0.6,0,0.8,0.1s0.3,0.2,0.4,0.3c0,0.1,0.1,0.4,0.1,0.7l0,1.1c0,0.4,0,0.8,0.1,0.9c0.1,0.2,0.2,0.3,0.3,0.3c0,0,0.1,0,0.1,0
			l0.1,0c0.1,0,0.1,0,0.1,0.1c0,0.1-0.3,0.2-0.8,0.2c-0.2,0-0.3,0-0.3-0.1C107.8,63.6,107.7,63.4,107.7,63.2z M107.7,61.5
			c-0.1,0.1-0.3,0.2-0.6,0.4c-0.3,0.2-0.5,0.3-0.6,0.4c-0.1,0.1-0.2,0.3-0.2,0.5c0,0.2,0.1,0.3,0.2,0.5c0.1,0.1,0.2,0.2,0.4,0.2
			c0.2,0,0.3-0.1,0.5-0.2c0.1-0.1,0.3-0.2,0.3-0.4s0.1-0.4,0.1-0.7C107.7,62.1,107.7,61.8,107.7,61.5z"/>
		<path class="st0" d="M110.6,61c0.2-0.3,0.4-0.6,0.6-0.7s0.4-0.2,0.6-0.2c0.2,0,0.3,0.1,0.4,0.2s0.2,0.2,0.2,0.4
			c0,0.3-0.1,0.4-0.3,0.4c-0.1,0-0.2-0.1-0.3-0.2c-0.1-0.2-0.2-0.3-0.4-0.3c-0.1,0-0.3,0.1-0.4,0.2c-0.2,0.2-0.3,0.3-0.3,0.5
			c-0.1,0.2-0.1,0.6-0.1,1.2c0,0.6,0,0.9,0.1,1c0,0.1,0.2,0.1,0.4,0.2c0.1,0,0.1,0,0.1,0.1c0,0.1-0.1,0.1-0.2,0.1h-1.4
			c-0.1,0-0.1,0-0.1-0.1c0,0,0.1-0.1,0.2-0.1c0.2,0,0.3-0.1,0.3-0.2s0.1-0.5,0.1-1.1c0-0.9,0-1.5-0.1-1.7c0-0.2-0.2-0.3-0.4-0.3
			c-0.1,0-0.2,0-0.2-0.1c0,0,0,0,0-0.1c0,0,0.2,0,0.4,0l0.8,0C110.5,60.3,110.6,60.6,110.6,61z"/>
		<path class="st0" d="M113.6,61.7c0,0.1,0,0.3,0,0.3c0,0.4,0.1,0.8,0.4,1c0.2,0.3,0.5,0.4,0.9,0.4c0.3,0,0.7-0.1,1-0.4
			c0.1-0.1,0.1-0.1,0.2-0.1c0,0,0.1,0,0.1,0.1c-0.1,0.2-0.3,0.4-0.6,0.5c-0.3,0.1-0.6,0.2-0.9,0.2c-0.5,0-0.9-0.2-1.2-0.5
			c-0.3-0.3-0.5-0.8-0.5-1.3c0-0.6,0.2-1,0.5-1.4c0.4-0.4,0.8-0.6,1.2-0.6c0.4,0,0.7,0.1,1,0.4c0.3,0.3,0.5,0.6,0.5,1
			c0,0.1,0,0.1,0,0.1s-0.1,0-0.3,0L113.6,61.7z M113.6,61.5c0.4,0,0.7,0,1.1,0l0.2,0c0.2,0,0.3,0,0.4-0.1s0.1-0.2,0.1-0.3
			c0-0.2-0.1-0.5-0.2-0.6c-0.2-0.2-0.4-0.3-0.6-0.3c-0.2,0-0.4,0.1-0.6,0.3C113.8,60.7,113.6,61.1,113.6,61.5z"/>
		<path class="st0" d="M117.1,63c0.1,0,0.3,0.1,0.4,0.2s0.2,0.3,0.2,0.5c0,0.2-0.1,0.5-0.2,0.8c-0.2,0.3-0.3,0.4-0.5,0.6
			s-0.3,0.2-0.3,0.2c0,0-0.1,0-0.1-0.1c0,0,0-0.1,0.1-0.1c0.1-0.1,0.3-0.2,0.4-0.4c0.1-0.2,0.2-0.4,0.2-0.6c0-0.1-0.1-0.2-0.2-0.2
			c-0.2,0-0.3-0.1-0.4-0.2c-0.1-0.1-0.1-0.2-0.1-0.3c0-0.1,0-0.2,0.1-0.3S116.9,63,117.1,63z"/>
		<path class="st0" d="M125.2,58.2c0.1,0.3,0.2,0.8,0.2,1.3c0,0,0,0,0,0c0,0,0,0-0.1,0c-0.2-0.3-0.4-0.6-0.6-0.7
			c-0.2-0.2-0.4-0.3-0.5-0.4c-0.2-0.1-0.5-0.1-0.9-0.1c-0.4,0-0.8,0-1,0.1c0,0,0,0.1,0,0.2c0,0,0,0.1,0,0.1c0,0.2,0,0.9,0,1.9
			c0,0,0,0.1,0,0.2c0.2,0,0.4,0,0.4,0c0.4,0,0.6-0.1,0.8-0.2s0.3-0.3,0.4-0.7c0-0.1,0-0.1,0.1-0.1c0.1,0,0.1,0,0.1,0.1l0,0.2
			c0,0.2,0,0.5,0,0.7c0,0.4,0,0.7,0,1.1c0,0.1,0,0.1-0.1,0.1c0,0-0.1,0-0.1-0.1c-0.1-0.3-0.2-0.6-0.4-0.7c-0.2-0.1-0.6-0.2-1.3-0.2
			c0,0.2,0,0.5,0,1c0,0.6,0,1,0.1,1.2c0,0.2,0.1,0.3,0.3,0.4c0.2,0.1,0.4,0.1,0.8,0.1c1.1,0,1.8-0.4,2.2-1.2c0-0.1,0.1-0.1,0.1-0.1
			c0,0,0.1,0,0.1,0.1c0,0,0,0.1,0,0.1c0,0.1-0.1,0.3-0.1,0.6c0,0.1-0.1,0.3-0.2,0.7l-1.8,0c-0.3,0-0.6,0-1.1,0s-0.9,0-1.3,0
			s-0.6,0-0.6,0c0,0,0,0,0,0c0-0.1,0-0.1,0.1-0.1c0.3,0,0.5-0.1,0.6-0.3s0.2-0.6,0.2-1.2l0-0.9l0-0.8c0-0.2,0-0.5,0-0.9
			s0-0.7-0.1-0.8c0-0.1-0.1-0.1-0.1-0.2s-0.2-0.1-0.5-0.2c-0.1,0-0.1-0.1-0.1-0.1c0-0.1,0.1-0.1,0.2-0.1l0.9,0c0.3,0,1.1,0,2.3,0
			C124.8,58.2,125.2,58.2,125.2,58.2z"/>
		<path class="st0" d="M127.6,57.9c0,0.4,0,0.7,0,1.1l0,2.7l0,1.3c0,0.2,0,0.4,0.1,0.5s0.2,0.2,0.5,0.2c0.1,0,0.1,0,0.1,0.1
			c0,0,0,0.1-0.1,0.1c0,0,0,0-0.1,0c-0.3,0-0.6,0-1.1,0c-0.3,0-0.5,0-0.6,0c0,0-0.1,0-0.1,0c-0.1,0-0.1,0-0.1-0.1c0,0,0-0.1,0.1-0.1
			c0.3,0,0.4-0.1,0.5-0.2c0.1-0.1,0.1-0.4,0.1-0.7l0-2.5c0-0.8,0-1.3,0-1.4c0-0.2-0.1-0.3-0.2-0.4c-0.1-0.1-0.2-0.2-0.4-0.2
			c-0.1,0-0.2,0-0.2-0.1c0,0,0-0.1,0.1-0.1C126.9,58,127.3,57.9,127.6,57.9L127.6,57.9z"/>
		<path class="st0" d="M131.1,63.2c-0.1,0.2-0.3,0.4-0.5,0.5c-0.2,0.1-0.4,0.2-0.7,0.2c-0.3,0-0.5-0.1-0.7-0.2
			c-0.2-0.2-0.2-0.4-0.2-0.6c0-0.2,0-0.4,0.1-0.5c0.1-0.2,0.2-0.3,0.3-0.4c0.1-0.1,0.4-0.2,0.7-0.3c0.5-0.2,0.7-0.3,0.8-0.4
			c0.1-0.1,0.1-0.2,0.1-0.4c0-0.3-0.1-0.5-0.2-0.6c-0.1-0.1-0.3-0.2-0.5-0.2c-0.2,0-0.3,0-0.4,0.1c-0.1,0.1-0.2,0.2-0.2,0.5
			c-0.1,0.3-0.2,0.4-0.3,0.4c-0.1,0-0.1,0-0.2-0.1c-0.1-0.1-0.1-0.2-0.1-0.3c0-0.2,0.1-0.4,0.4-0.6c0.2-0.2,0.6-0.2,1-0.2
			c0.3,0,0.6,0,0.8,0.1s0.3,0.2,0.4,0.3c0,0.1,0.1,0.4,0.1,0.7l0,1.1c0,0.4,0,0.8,0.1,0.9c0.1,0.2,0.2,0.3,0.3,0.3c0,0,0.1,0,0.1,0
			l0.1,0c0.1,0,0.1,0,0.1,0.1c0,0.1-0.3,0.2-0.8,0.2c-0.2,0-0.3,0-0.3-0.1C131.1,63.6,131.1,63.4,131.1,63.2z M131.1,61.5
			c-0.1,0.1-0.3,0.2-0.6,0.4c-0.3,0.2-0.5,0.3-0.6,0.4c-0.1,0.1-0.2,0.3-0.2,0.5c0,0.2,0.1,0.3,0.2,0.5c0.1,0.1,0.2,0.2,0.4,0.2
			c0.2,0,0.3-0.1,0.5-0.2c0.1-0.1,0.3-0.2,0.3-0.4s0.1-0.4,0.1-0.7C131.1,62.1,131.1,61.8,131.1,61.5z"/>
		<path class="st0" d="M133.7,60.5c0.3-0.3,0.7-0.5,1.1-0.5c0.5,0,0.9,0.2,1.2,0.5c0.3,0.4,0.5,0.8,0.5,1.3c0,0.5-0.2,1-0.5,1.4
			c-0.3,0.4-0.7,0.6-1.3,0.6c-0.4,0-0.8-0.1-1.1-0.3c-0.1-0.1-0.2-0.1-0.2-0.1c-0.1,0-0.1,0.1-0.2,0.2c0,0.1-0.1,0.2-0.1,0.2
			c0,0-0.1,0-0.1-0.1l0-0.2l0.1-3.8c0-0.7,0-1.1,0-1.2c0-0.1,0-0.2-0.1-0.3c-0.1-0.1-0.1-0.1-0.3-0.2c-0.1,0-0.1,0-0.1-0.1
			c0,0,0-0.1,0.1-0.1l0.8,0c0.1,0,0.1,0,0.2,0c0,0,0.1,0.1,0.1,0.1c0,0,0,0.1,0,0.2C133.7,58.7,133.7,59.4,133.7,60.5z M133.6,62.4
			c0,0.3,0,0.5,0.1,0.7c0,0.1,0.2,0.3,0.3,0.4c0.2,0.1,0.4,0.2,0.6,0.2c0.3,0,0.6-0.1,0.8-0.4c0.2-0.3,0.3-0.7,0.3-1.2
			c0-0.5-0.1-1-0.3-1.3c-0.2-0.3-0.5-0.5-0.8-0.5c-0.3,0-0.5,0.1-0.7,0.4S133.6,61.5,133.6,62.4z"/>
		<path class="st0" d="M137,62c0-0.5,0.2-0.9,0.5-1.3c0.4-0.4,0.8-0.6,1.3-0.6c0.5,0,0.9,0.2,1.3,0.5c0.4,0.3,0.5,0.8,0.5,1.3
			c0,0.5-0.2,1-0.6,1.4c-0.4,0.4-0.8,0.6-1.3,0.6c-0.5,0-0.9-0.2-1.3-0.5C137.2,62.9,137,62.5,137,62z M137.7,61.9
			c0,0.5,0.1,0.9,0.3,1.2c0.2,0.3,0.5,0.5,0.8,0.5c0.3,0,0.6-0.2,0.8-0.5s0.4-0.7,0.4-1.2c0-0.5-0.1-0.9-0.3-1.2s-0.5-0.5-0.9-0.5
			c-0.3,0-0.6,0.2-0.8,0.5C137.8,61,137.7,61.4,137.7,61.9z"/>
		<path class="st0" d="M142.5,61c0.2-0.3,0.4-0.6,0.6-0.7s0.4-0.2,0.6-0.2c0.2,0,0.3,0.1,0.4,0.2s0.2,0.2,0.2,0.4
			c0,0.3-0.1,0.4-0.3,0.4c-0.1,0-0.2-0.1-0.3-0.2c-0.1-0.2-0.2-0.3-0.4-0.3c-0.1,0-0.3,0.1-0.4,0.2c-0.2,0.2-0.3,0.3-0.3,0.5
			c-0.1,0.2-0.1,0.6-0.1,1.2c0,0.6,0,0.9,0.1,1c0,0.1,0.2,0.1,0.4,0.2c0.1,0,0.1,0,0.1,0.1c0,0.1-0.1,0.1-0.2,0.1h-1.4
			c-0.1,0-0.1,0-0.1-0.1c0,0,0.1-0.1,0.2-0.1c0.2,0,0.3-0.1,0.3-0.2s0.1-0.5,0.1-1.1c0-0.9,0-1.5-0.1-1.7c0-0.2-0.2-0.3-0.4-0.3
			c-0.1,0-0.2,0-0.2-0.1c0,0,0,0,0-0.1c0,0,0.2,0,0.4,0l0.8,0C142.5,60.3,142.5,60.6,142.5,61z"/>
		<path class="st0" d="M147.1,63.2c-0.1,0.2-0.3,0.4-0.5,0.5c-0.2,0.1-0.4,0.2-0.7,0.2c-0.3,0-0.5-0.1-0.7-0.2
			c-0.2-0.2-0.2-0.4-0.2-0.6c0-0.2,0-0.4,0.1-0.5c0.1-0.2,0.2-0.3,0.3-0.4c0.1-0.1,0.4-0.2,0.7-0.3c0.5-0.2,0.7-0.3,0.8-0.4
			c0.1-0.1,0.1-0.2,0.1-0.4c0-0.3-0.1-0.5-0.2-0.6c-0.1-0.1-0.3-0.2-0.5-0.2c-0.2,0-0.3,0-0.4,0.1c-0.1,0.1-0.2,0.2-0.2,0.5
			c-0.1,0.3-0.2,0.4-0.3,0.4c-0.1,0-0.1,0-0.2-0.1c-0.1-0.1-0.1-0.2-0.1-0.3c0-0.2,0.1-0.4,0.4-0.6c0.2-0.2,0.6-0.2,1-0.2
			c0.3,0,0.6,0,0.8,0.1s0.3,0.2,0.4,0.3c0,0.1,0.1,0.4,0.1,0.7l0,1.1c0,0.4,0,0.8,0.1,0.9c0.1,0.2,0.2,0.3,0.3,0.3c0,0,0.1,0,0.1,0
			l0.1,0c0.1,0,0.1,0,0.1,0.1c0,0.1-0.3,0.2-0.8,0.2c-0.2,0-0.3,0-0.3-0.1C147.2,63.6,147.1,63.4,147.1,63.2z M147.1,61.5
			c-0.1,0.1-0.3,0.2-0.6,0.4c-0.3,0.2-0.5,0.3-0.6,0.4c-0.1,0.1-0.2,0.3-0.2,0.5c0,0.2,0.1,0.3,0.2,0.5c0.1,0.1,0.2,0.2,0.4,0.2
			c0.2,0,0.3-0.1,0.5-0.2c0.1-0.1,0.3-0.2,0.3-0.4s0.1-0.4,0.1-0.7C147.2,62.1,147.1,61.8,147.1,61.5z"/>
		<path class="st0" d="M150,61c0.2-0.3,0.4-0.6,0.6-0.7s0.4-0.2,0.6-0.2c0.2,0,0.3,0.1,0.4,0.2s0.2,0.2,0.2,0.4
			c0,0.3-0.1,0.4-0.3,0.4c-0.1,0-0.2-0.1-0.3-0.2c-0.1-0.2-0.2-0.3-0.4-0.3c-0.1,0-0.3,0.1-0.4,0.2c-0.2,0.2-0.3,0.3-0.3,0.5
			c-0.1,0.2-0.1,0.6-0.1,1.2c0,0.6,0,0.9,0.1,1c0,0.1,0.2,0.1,0.4,0.2c0.1,0,0.1,0,0.1,0.1c0,0.1-0.1,0.1-0.2,0.1h-1.4
			c-0.1,0-0.1,0-0.1-0.1c0,0,0.1-0.1,0.2-0.1c0.2,0,0.3-0.1,0.3-0.2s0.1-0.5,0.1-1.1c0-0.9,0-1.5-0.1-1.7c0-0.2-0.2-0.3-0.4-0.3
			c-0.1,0-0.2,0-0.2-0.1c0,0,0,0,0-0.1c0,0,0.2,0,0.4,0l0.8,0C149.9,60.3,150,60.6,150,61z"/>
		<path class="st0" d="M153,61.7c0,0.1,0,0.3,0,0.3c0,0.4,0.1,0.8,0.4,1c0.2,0.3,0.5,0.4,0.9,0.4c0.3,0,0.7-0.1,1-0.4
			c0.1-0.1,0.1-0.1,0.2-0.1c0,0,0.1,0,0.1,0.1c-0.1,0.2-0.3,0.4-0.6,0.5c-0.3,0.1-0.6,0.2-0.9,0.2c-0.5,0-0.9-0.2-1.2-0.5
			c-0.3-0.3-0.5-0.8-0.5-1.3c0-0.6,0.2-1,0.5-1.4c0.4-0.4,0.8-0.6,1.2-0.6c0.4,0,0.7,0.1,1,0.4c0.3,0.3,0.5,0.6,0.5,1
			c0,0.1,0,0.1,0,0.1s-0.1,0-0.3,0L153,61.7z M153,61.5c0.4,0,0.7,0,1.1,0l0.2,0c0.2,0,0.3,0,0.4-0.1s0.1-0.2,0.1-0.3
			c0-0.2-0.1-0.5-0.2-0.6c-0.2-0.2-0.4-0.3-0.6-0.3c-0.2,0-0.4,0.1-0.6,0.3C153.2,60.7,153,61.1,153,61.5z"/>
		<path class="st0" d="M156.5,63c0.1,0,0.3,0.1,0.4,0.2s0.2,0.3,0.2,0.5c0,0.2-0.1,0.5-0.2,0.8c-0.2,0.3-0.3,0.4-0.5,0.6
			s-0.3,0.2-0.3,0.2c0,0-0.1,0-0.1-0.1c0,0,0-0.1,0.1-0.1c0.1-0.1,0.3-0.2,0.4-0.4c0.1-0.2,0.2-0.4,0.2-0.6c0-0.1-0.1-0.2-0.2-0.2
			c-0.2,0-0.3-0.1-0.4-0.2c-0.1-0.1-0.1-0.2-0.1-0.3c0-0.1,0-0.2,0.1-0.3S156.3,63,156.5,63z"/>
		<path class="st0" d="M164.8,63.8c-0.1,0-0.2,0-0.2,0c-0.1,0-0.3,0-0.6,0c-0.3,0-0.9,0-1.7,0h-1.1c0,0-0.2,0-0.4,0
			c-0.3,0-0.4,0-0.5,0c-0.2,0-0.3,0-0.3-0.1c0,0,0-0.1,0.1-0.1c0.3,0,0.5-0.1,0.6-0.2c0.1-0.1,0.2-0.2,0.2-0.4
			c0-0.2,0.1-0.7,0.1-1.5l0-1.5c0-0.5,0-0.8-0.1-1c0-0.2-0.1-0.3-0.3-0.5c-0.1-0.1-0.3-0.2-0.5-0.2c-0.1,0-0.1,0-0.1-0.1
			c0-0.1,0-0.1,0.1-0.1c0,0,0.1,0,0.1,0c0.5,0,1,0,1.6,0l0.8,0c0.1,0,0.1,0,0.1,0.1c0,0.1,0,0.1-0.1,0.1c-0.2,0-0.4,0-0.5,0.1
			c-0.1,0.1-0.2,0.2-0.3,0.3c0,0.1-0.1,0.3-0.1,0.6l0,2l0,1.1c0,0.4,0,0.6,0,0.7c0,0.1,0.1,0.2,0.2,0.3c0.1,0.1,0.3,0.1,0.5,0.1
			c0,0,0.3,0,0.8,0c0.4-0.1,0.7-0.2,1.1-0.6s0.5-0.6,0.6-0.9c0-0.1,0.1-0.1,0.1-0.1c0,0,0.1,0,0.1,0.1c0,0.1,0,0.4-0.1,0.9
			C164.9,63.4,164.8,63.7,164.8,63.8z"/>
		<path class="st0" d="M166.2,61.7c0,0.1,0,0.3,0,0.3c0,0.4,0.1,0.8,0.4,1c0.2,0.3,0.5,0.4,0.9,0.4c0.3,0,0.7-0.1,1-0.4
			c0.1-0.1,0.1-0.1,0.2-0.1c0,0,0.1,0,0.1,0.1c-0.1,0.2-0.3,0.4-0.6,0.5c-0.3,0.1-0.6,0.2-0.9,0.2c-0.5,0-0.9-0.2-1.2-0.5
			c-0.3-0.3-0.5-0.8-0.5-1.3c0-0.6,0.2-1,0.5-1.4c0.4-0.4,0.8-0.6,1.2-0.6c0.4,0,0.7,0.1,1,0.4c0.3,0.3,0.5,0.6,0.5,1
			c0,0.1,0,0.1,0,0.1s-0.1,0-0.3,0L166.2,61.7z M166.2,61.5c0.4,0,0.7,0,1.1,0l0.2,0c0.2,0,0.3,0,0.4-0.1s0.1-0.2,0.1-0.3
			c0-0.2-0.1-0.5-0.2-0.6c-0.2-0.2-0.4-0.3-0.6-0.3c-0.2,0-0.4,0.1-0.6,0.3C166.3,60.7,166.2,61.1,166.2,61.5z"/>
		<path class="st0" d="M170.6,60.4c0,0.6-0.1,1.3-0.1,1.9c0,0.5,0.1,0.8,0.2,0.9c0.1,0.1,0.3,0.2,0.5,0.2c0.2,0,0.3-0.1,0.5-0.2
			c0.1,0,0.1-0.1,0.1-0.1c0,0,0.1,0,0.1,0.1c0,0.1-0.1,0.2-0.3,0.3s-0.5,0.2-0.8,0.2c-0.3,0-0.5-0.1-0.7-0.3s-0.2-0.5-0.2-0.9
			c0-0.4,0-1.1,0.1-2.2c0,0-0.2,0-0.4,0l-0.3,0c-0.1,0-0.1,0-0.1-0.1c0,0,0-0.1,0.1-0.1c0.1,0,0.3-0.2,0.6-0.4
			c0.3-0.2,0.4-0.5,0.5-0.9c0-0.1,0-0.2,0.1-0.2s0.1,0,0.1,0.1c0,0,0,0.1,0,0.1c0,0.1,0,0.2,0,0.4l0,0.7l0.9,0c0.2,0,0.2,0,0.2,0.1
			c0,0.1,0,0.2-0.1,0.2C171.5,60.4,171.2,60.4,170.6,60.4z"/>
		<path class="st0" d="M173.6,60.4c0,0.6-0.1,1.3-0.1,1.9c0,0.5,0.1,0.8,0.2,0.9c0.1,0.1,0.3,0.2,0.5,0.2c0.2,0,0.3-0.1,0.5-0.2
			c0.1,0,0.1-0.1,0.1-0.1c0,0,0.1,0,0.1,0.1c0,0.1-0.1,0.2-0.3,0.3s-0.5,0.2-0.8,0.2c-0.3,0-0.5-0.1-0.7-0.3s-0.2-0.5-0.2-0.9
			c0-0.4,0-1.1,0.1-2.2c0,0-0.2,0-0.4,0l-0.3,0c-0.1,0-0.1,0-0.1-0.1c0,0,0-0.1,0.1-0.1c0.1,0,0.3-0.2,0.6-0.4
			c0.3-0.2,0.4-0.5,0.5-0.9c0-0.1,0-0.2,0.1-0.2s0.1,0,0.1,0.1c0,0,0,0.1,0,0.1c0,0.1,0,0.2,0,0.4l0,0.7l0.9,0c0.2,0,0.2,0,0.2,0.1
			c0,0.1,0,0.2-0.1,0.2C174.6,60.4,174.2,60.4,173.6,60.4z"/>
		<path class="st0" d="M176,61.7c0,0.1,0,0.3,0,0.3c0,0.4,0.1,0.8,0.4,1c0.2,0.3,0.5,0.4,0.9,0.4c0.3,0,0.7-0.1,1-0.4
			c0.1-0.1,0.1-0.1,0.2-0.1c0,0,0.1,0,0.1,0.1c-0.1,0.2-0.3,0.4-0.6,0.5c-0.3,0.1-0.6,0.2-0.9,0.2c-0.5,0-0.9-0.2-1.2-0.5
			c-0.3-0.3-0.5-0.8-0.5-1.3c0-0.6,0.2-1,0.5-1.4c0.4-0.4,0.8-0.6,1.2-0.6c0.4,0,0.7,0.1,1,0.4c0.3,0.3,0.5,0.6,0.5,1
			c0,0.1,0,0.1,0,0.1s-0.1,0-0.3,0L176,61.7z M176,61.5c0.4,0,0.7,0,1.1,0l0.2,0c0.2,0,0.3,0,0.4-0.1s0.1-0.2,0.1-0.3
			c0-0.2-0.1-0.5-0.2-0.6c-0.2-0.2-0.4-0.3-0.6-0.3c-0.2,0-0.4,0.1-0.6,0.3C176.2,60.7,176,61.1,176,61.5z"/>
		<path class="st0" d="M180.2,61c0.2-0.3,0.4-0.6,0.6-0.7s0.4-0.2,0.6-0.2c0.2,0,0.3,0.1,0.4,0.2s0.2,0.2,0.2,0.4
			c0,0.3-0.1,0.4-0.3,0.4c-0.1,0-0.2-0.1-0.3-0.2c-0.1-0.2-0.2-0.3-0.4-0.3c-0.1,0-0.3,0.1-0.4,0.2c-0.2,0.2-0.3,0.3-0.3,0.5
			c-0.1,0.2-0.1,0.6-0.1,1.2c0,0.6,0,0.9,0.1,1c0,0.1,0.2,0.1,0.4,0.2c0.1,0,0.1,0,0.1,0.1c0,0.1-0.1,0.1-0.2,0.1h-1.4
			c-0.1,0-0.1,0-0.1-0.1c0,0,0.1-0.1,0.2-0.1c0.2,0,0.3-0.1,0.3-0.2s0.1-0.5,0.1-1.1c0-0.9,0-1.5-0.1-1.7c0-0.2-0.2-0.3-0.4-0.3
			c-0.1,0-0.2,0-0.2-0.1c0,0,0,0,0-0.1c0,0,0.2,0,0.4,0l0.8,0C180.2,60.3,180.2,60.6,180.2,61z"/>
		<path class="st0" d="M184.8,63.2c-0.1,0.2-0.3,0.4-0.5,0.5c-0.2,0.1-0.4,0.2-0.7,0.2c-0.3,0-0.5-0.1-0.7-0.2
			c-0.2-0.2-0.2-0.4-0.2-0.6c0-0.2,0-0.4,0.1-0.5c0.1-0.2,0.2-0.3,0.3-0.4c0.1-0.1,0.4-0.2,0.7-0.3c0.5-0.2,0.7-0.3,0.8-0.4
			c0.1-0.1,0.1-0.2,0.1-0.4c0-0.3-0.1-0.5-0.2-0.6c-0.1-0.1-0.3-0.2-0.5-0.2c-0.2,0-0.3,0-0.4,0.1c-0.1,0.1-0.2,0.2-0.2,0.5
			c-0.1,0.3-0.2,0.4-0.3,0.4c-0.1,0-0.1,0-0.2-0.1c-0.1-0.1-0.1-0.2-0.1-0.3c0-0.2,0.1-0.4,0.4-0.6c0.2-0.2,0.6-0.2,1-0.2
			c0.3,0,0.6,0,0.8,0.1s0.3,0.2,0.4,0.3c0,0.1,0.1,0.4,0.1,0.7l0,1.1c0,0.4,0,0.8,0.1,0.9c0.1,0.2,0.2,0.3,0.3,0.3c0,0,0.1,0,0.1,0
			l0.1,0c0.1,0,0.1,0,0.1,0.1c0,0.1-0.3,0.2-0.8,0.2c-0.2,0-0.3,0-0.3-0.1C184.9,63.6,184.8,63.4,184.8,63.2z M184.8,61.5
			c-0.1,0.1-0.3,0.2-0.6,0.4c-0.3,0.2-0.5,0.3-0.6,0.4c-0.1,0.1-0.2,0.3-0.2,0.5c0,0.2,0.1,0.3,0.2,0.5c0.1,0.1,0.2,0.2,0.4,0.2
			c0.2,0,0.3-0.1,0.5-0.2c0.1-0.1,0.3-0.2,0.3-0.4s0.1-0.4,0.1-0.7C184.8,62.1,184.8,61.8,184.8,61.5z"/>
		<path class="st0" d="M187.1,63c0.1,0,0.3,0.1,0.4,0.2s0.2,0.3,0.2,0.5c0,0.2-0.1,0.5-0.2,0.8c-0.2,0.3-0.3,0.4-0.5,0.6
			s-0.3,0.2-0.3,0.2c0,0-0.1,0-0.1-0.1c0,0,0-0.1,0.1-0.1c0.1-0.1,0.3-0.2,0.4-0.4c0.1-0.2,0.2-0.4,0.2-0.6c0-0.1-0.1-0.2-0.2-0.2
			c-0.2,0-0.3-0.1-0.4-0.2c-0.1-0.1-0.1-0.2-0.1-0.3c0-0.1,0-0.2,0.1-0.3S186.9,63,187.1,63z"/>
		<path class="st0" d="M192.3,58.1l0.9,0c1.1,0,2,0.3,2.5,0.8c0.6,0.5,0.9,1.2,0.9,2.1c0,0.6-0.1,1.1-0.4,1.5c-0.3,0.4-0.6,0.8-1,1
			c-0.4,0.2-1,0.3-1.7,0.3c-0.2,0-0.4,0-0.6,0c-0.4,0-0.7-0.1-0.7-0.1c-0.9,0-1.5,0-1.7,0c-0.1,0-0.1,0-0.1-0.1c0,0,0-0.1,0.1-0.1
			c0,0,0.1,0,0.3-0.1c0.2,0,0.4-0.1,0.5-0.3c0.1-0.2,0.2-0.6,0.2-1.4l0.1-2.3c0-0.3,0-0.5-0.1-0.8c0-0.2-0.1-0.4-0.2-0.5
			c-0.1-0.1-0.2-0.1-0.4-0.1c-0.1,0-0.2,0-0.2-0.1c0-0.1,0-0.1,0.1-0.1c0.1,0,0.2,0,0.5,0C191.7,58.1,192,58.1,192.3,58.1z
			 M192.2,62.3c0,0.4,0,0.6,0.1,0.8c0,0.2,0.2,0.3,0.3,0.4c0.2,0.1,0.4,0.2,0.8,0.2c0.5,0,0.9-0.1,1.3-0.4c0.3-0.2,0.6-0.6,0.8-1
			c0.2-0.4,0.3-0.8,0.3-1.3c0-0.7-0.2-1.3-0.6-1.9s-1.1-0.8-1.9-0.8c-0.4,0-0.6,0-0.7,0s-0.1,0.1-0.1,0.2c0,0.1,0,0.3,0,0.6
			c0,0.4,0,0.7-0.1,1l0,1.2C192.2,61.9,192.2,62.2,192.2,62.3z"/>
		<path class="st0" d="M197.3,62c0-0.5,0.2-0.9,0.5-1.3c0.4-0.4,0.8-0.6,1.3-0.6c0.5,0,0.9,0.2,1.3,0.5c0.4,0.3,0.5,0.8,0.5,1.3
			c0,0.5-0.2,1-0.6,1.4c-0.4,0.4-0.8,0.6-1.3,0.6c-0.5,0-0.9-0.2-1.3-0.5C197.5,62.9,197.3,62.5,197.3,62z M198,61.9
			c0,0.5,0.1,0.9,0.3,1.2c0.2,0.3,0.5,0.5,0.8,0.5c0.3,0,0.6-0.2,0.8-0.5s0.4-0.7,0.4-1.2c0-0.5-0.1-0.9-0.3-1.2s-0.5-0.5-0.9-0.5
			c-0.3,0-0.6,0.2-0.8,0.5C198.1,61,198,61.4,198,61.9z"/>
		<path class="st0" d="M201.6,62c0-0.5,0.2-1,0.5-1.4s0.7-0.6,1.2-0.6c0.3,0,0.6,0.1,0.9,0.2c0.3,0.2,0.4,0.3,0.4,0.6
			c0,0.1,0,0.2-0.1,0.2c-0.1,0.1-0.1,0.1-0.2,0.1c-0.2,0-0.3-0.1-0.4-0.4c-0.1-0.4-0.4-0.6-0.7-0.6c-0.3,0-0.6,0.1-0.7,0.4
			c-0.2,0.3-0.3,0.7-0.3,1.1c0,0.5,0.1,1,0.4,1.3c0.2,0.3,0.5,0.5,0.9,0.5c0.2,0,0.4-0.1,0.6-0.3c0.2-0.2,0.3-0.4,0.4-0.6
			c0-0.1,0-0.1,0.1-0.1c0.1,0,0.1,0,0.1,0.1c0,0.3-0.1,0.5-0.4,0.8c-0.3,0.2-0.6,0.4-1,0.4c-0.5,0-0.9-0.2-1.2-0.5
			C201.7,62.9,201.6,62.5,201.6,62z"/>
		<path class="st0" d="M206.3,60.1c0,0.2,0,0.7,0,1.6c0,0.6,0,0.9,0,1.1c0,0.2,0.1,0.3,0.2,0.5c0.1,0.1,0.3,0.2,0.4,0.2
			c0.2,0,0.4-0.1,0.6-0.3c0.2-0.2,0.3-0.4,0.4-0.6s0.1-0.7,0.1-1.5c0-0.4,0-0.6-0.1-0.7c0-0.1-0.2-0.1-0.3-0.1c-0.1,0-0.1,0-0.1-0.1
			c0,0,0-0.1,0-0.1c0,0,0.1,0,0.2,0h0.9c0,0.3,0,0.7,0,1l0,1.6c0,0.3,0,0.5,0.1,0.6c0.1,0.1,0.1,0.1,0.3,0.1c0.1,0,0.1,0,0.1,0.1
			c0,0.1-0.1,0.1-0.2,0.1h-0.7c-0.1,0-0.2,0-0.2-0.1c0,0,0,0,0-0.1c0-0.1,0-0.2,0-0.3c0-0.1,0-0.2,0-0.3c-0.2,0.3-0.4,0.5-0.7,0.6
			c-0.2,0.1-0.5,0.2-0.7,0.2c-0.2,0-0.4-0.1-0.5-0.2s-0.2-0.2-0.3-0.4c0-0.2-0.1-0.5-0.1-1.1c0-0.6,0-1.1,0-1.4c0-0.2,0-0.3,0-0.3
			c0,0-0.1-0.1-0.2-0.1c-0.1,0-0.2,0-0.2-0.1s0.1-0.1,0.2-0.1H206.3z"/>
		<path class="st0" d="M210.9,60c0,0.1,0.1,0.2,0.1,0.3c0,0.1,0,0.3,0,0.4c0.2-0.2,0.4-0.4,0.6-0.5c0.2-0.1,0.4-0.2,0.7-0.2
			c0.2,0,0.4,0,0.6,0.1c0.2,0.1,0.3,0.2,0.5,0.4c0.2-0.2,0.4-0.3,0.6-0.4c0.2-0.1,0.4-0.1,0.6-0.1c0.3,0,0.5,0.1,0.7,0.2
			c0.2,0.1,0.3,0.2,0.3,0.4c0,0.1,0.1,0.4,0.1,0.8l0,1.6c0,0.2,0,0.4,0.1,0.5c0,0.1,0.1,0.1,0.3,0.1c0.1,0,0.1,0,0.1,0.1
			c0,0.1-0.1,0.1-0.2,0.1h-1.3c-0.1,0-0.2,0-0.2-0.1c0,0,0-0.1,0.1-0.1c0.2,0,0.4-0.1,0.4-0.2c0.1-0.1,0.1-0.6,0.1-1.5
			c0-0.4,0-0.8,0-0.9c0-0.2-0.1-0.4-0.2-0.5c-0.1-0.1-0.3-0.2-0.5-0.2c-0.2,0-0.3,0-0.5,0.1c-0.1,0.1-0.3,0.2-0.4,0.4
			c-0.1,0.4-0.2,1-0.2,2c0,0.3,0,0.5,0.1,0.6s0.2,0.1,0.4,0.1h0.1c0.1,0,0.1,0,0.1,0.1c0,0.1-0.1,0.1-0.2,0.1h-1.4
			c-0.1,0-0.2,0-0.2-0.1c0-0.1,0-0.1,0.1-0.1c0.2,0,0.3,0,0.4-0.1s0.1-0.3,0.1-0.6s0-0.7,0-1c0-0.6-0.1-1-0.2-1.2
			c-0.1-0.2-0.3-0.3-0.5-0.3c-0.2,0-0.4,0.1-0.6,0.2c-0.2,0.2-0.3,0.4-0.4,0.6c-0.1,0.3-0.1,0.7-0.1,1.4c0,0.5,0,0.8,0.1,0.9
			c0,0.1,0.2,0.2,0.3,0.2c0.1,0,0.1,0,0.1,0c0,0,0,0,0,0.1c0,0-0.1,0.1-0.2,0.1H210c-0.2,0-0.2,0-0.2-0.1c0,0,0-0.1,0.1-0.1
			c0.2,0,0.3,0,0.3-0.1s0.1-0.2,0.1-0.5c0-0.3,0-0.7,0-1.3c0-0.6,0-0.9,0-1.1c0-0.1,0-0.2-0.1-0.3c-0.1-0.1-0.2-0.1-0.4-0.1
			c-0.1,0-0.1,0-0.1-0.1c0,0,0-0.1,0-0.1c0,0,0.1,0,0.4-0.1s0.5,0,0.6,0C210.8,60,210.8,60,210.9,60z"/>
		<path class="st0" d="M217.3,61.7c0,0.1,0,0.3,0,0.3c0,0.4,0.1,0.8,0.4,1c0.2,0.3,0.5,0.4,0.9,0.4c0.3,0,0.7-0.1,1-0.4
			c0.1-0.1,0.1-0.1,0.2-0.1c0,0,0.1,0,0.1,0.1c-0.1,0.2-0.3,0.4-0.6,0.5c-0.3,0.1-0.6,0.2-0.9,0.2c-0.5,0-0.9-0.2-1.2-0.5
			c-0.3-0.3-0.5-0.8-0.5-1.3c0-0.6,0.2-1,0.5-1.4c0.4-0.4,0.8-0.6,1.2-0.6c0.4,0,0.7,0.1,1,0.4c0.3,0.3,0.5,0.6,0.5,1
			c0,0.1,0,0.1,0,0.1s-0.1,0-0.3,0L217.3,61.7z M217.3,61.5c0.4,0,0.7,0,1.1,0l0.2,0c0.2,0,0.3,0,0.4-0.1s0.1-0.2,0.1-0.3
			c0-0.2-0.1-0.5-0.2-0.6c-0.2-0.2-0.4-0.3-0.6-0.3c-0.2,0-0.4,0.1-0.6,0.3C217.5,60.7,217.4,61.1,217.3,61.5z"/>
		<path class="st0" d="M221.5,60.1c0.1,0.2,0.1,0.5,0.1,0.9c0.2-0.3,0.4-0.5,0.6-0.6c0.2-0.1,0.5-0.2,0.7-0.2c0.2,0,0.4,0,0.6,0.1
			c0.2,0.1,0.3,0.2,0.4,0.4s0.1,0.5,0.1,0.9l0,1.4c0,0.3,0,0.4,0.1,0.5c0,0.1,0.1,0.1,0.3,0.2c0.1,0,0.2,0.1,0.2,0.1
			c0,0,0,0.1-0.1,0.1c0,0,0,0-0.1,0c-0.1,0-0.3,0-0.6,0c-0.2,0-0.5,0-0.7,0c-0.1,0-0.2,0-0.2-0.1c0,0,0-0.1,0.1-0.1
			c0.2,0,0.3-0.1,0.3-0.1s0.1-0.1,0.1-0.1c0-0.1,0-0.3,0-0.6c0-0.4,0-0.6,0-0.9c0-0.6-0.1-1-0.2-1.2s-0.3-0.3-0.6-0.3
			c-0.3,0-0.6,0.2-0.8,0.5c-0.2,0.4-0.3,1-0.3,1.8c0,0.4,0,0.6,0.1,0.7c0,0.1,0.2,0.2,0.4,0.2c0.1,0,0.1,0,0.1,0.1
			c0,0,0,0.1-0.1,0.1l-0.2,0c-0.1,0-0.3,0-0.8,0l-0.3,0c-0.1,0-0.2,0-0.2-0.1c0,0,0.1-0.1,0.2-0.1c0.1,0,0.2-0.1,0.3-0.1
			c0-0.1,0.1-0.3,0.1-0.6c0-0.4,0-0.8,0-1.4c0-0.5,0-0.8-0.1-0.9s-0.2-0.2-0.3-0.2c-0.1,0-0.2-0.1-0.2-0.1c0,0,0-0.1,0.1-0.1l0.3,0
			C220.9,60.1,221.1,60.1,221.5,60.1z"/>
		<path class="st0" d="M226.4,60.4c0,0.6-0.1,1.3-0.1,1.9c0,0.5,0.1,0.8,0.2,0.9c0.1,0.1,0.3,0.2,0.5,0.2c0.2,0,0.3-0.1,0.5-0.2
			c0.1,0,0.1-0.1,0.1-0.1c0,0,0.1,0,0.1,0.1c0,0.1-0.1,0.2-0.3,0.3s-0.5,0.2-0.8,0.2c-0.3,0-0.5-0.1-0.7-0.3s-0.2-0.5-0.2-0.9
			c0-0.4,0-1.1,0.1-2.2c0,0-0.2,0-0.4,0l-0.3,0c-0.1,0-0.1,0-0.1-0.1c0,0,0-0.1,0.1-0.1c0.1,0,0.3-0.2,0.6-0.4
			c0.3-0.2,0.4-0.5,0.5-0.9c0-0.1,0-0.2,0.1-0.2s0.1,0,0.1,0.1c0,0,0,0.1,0,0.1c0,0.1,0,0.2,0,0.4l0,0.7l0.9,0c0.2,0,0.2,0,0.2,0.1
			c0,0.1,0,0.2-0.1,0.2C227.4,60.4,227,60.4,226.4,60.4z"/>
		<path class="st0" d="M228.1,62c0-0.5,0.2-0.9,0.5-1.3c0.4-0.4,0.8-0.6,1.3-0.6c0.5,0,0.9,0.2,1.3,0.5c0.4,0.3,0.5,0.8,0.5,1.3
			c0,0.5-0.2,1-0.6,1.4c-0.4,0.4-0.8,0.6-1.3,0.6c-0.5,0-0.9-0.2-1.3-0.5C228.3,62.9,228.1,62.5,228.1,62z M228.8,61.9
			c0,0.5,0.1,0.9,0.3,1.2c0.2,0.3,0.5,0.5,0.8,0.5c0.3,0,0.6-0.2,0.8-0.5s0.4-0.7,0.4-1.2c0-0.5-0.1-0.9-0.3-1.2s-0.5-0.5-0.9-0.5
			c-0.3,0-0.6,0.2-0.8,0.5C228.9,61,228.8,61.4,228.8,61.9z"/>
	</g>
	<g>
		<rect x="17.2" y="84.5" class="st0" width="214.6" height="1.1"/>
	</g>
	<g>
		<path class="st0" d="M27.5,75.9L45,58.4c1.1-1.1,1.8-2.7,1.8-4.4c0-2.3-1.2-4.3-3.1-5.4L24.3,37.5l-3.8,2.2
			c-1.4,0.8-2.3,2.3-2.3,4c0,1.1,0.4,2,0.9,2.8c0,0-0.1-0.1-0.1-0.1c-1.2-1.1-2-2.7-2-4.4c0-2.1,1.1-3.9,2.7-4.9l20.7-12
			c3.7-2.2,6.2-6.2,6.2-10.8c0-4.7-2.6-8.9-6.5-11c0,0.1,0,0.2,0,0.4c0,3.2-1.2,6.1-3.2,8.3c-0.9,1-2,1.8-3.1,2.5L6.1,30.6
			C4.2,31.6,3,33.6,3,35.9c0,1.6,0.6,3.1,1.7,4.2c0.4,0.5,0.9,0.8,1.5,1.1l2.2,1.3l31,17.9l-9.5-2.4l-6.2,15.6L27.5,75.9z"/>
		<polygon class="st0" points="25.6,77.8 19.7,83.7 22.7,76.1 		"/>
		<g>
			<defs>
				<path id="SVGID_1_" d="M27.5,75.9L45,58.4c1.1-1.1,1.8-2.7,1.8-4.4c0-2.3-1.2-4.3-3.1-5.4L24.3,37.5l-3.8,2.2
					c-1.4,0.8-2.3,2.3-2.3,4c0,1.1,0.4,2,0.9,2.8c0,0-0.1-0.1-0.1-0.1c-1.2-1.1-2-2.7-2-4.4c0-2.1,1.1-3.9,2.7-4.9l20.7-12
					c3.7-2.2,6.2-6.2,6.2-10.8c0-4.7-2.6-8.9-6.5-11c0,0.1,0,0.2,0,0.4c0,3.2-1.2,6.1-3.2,8.3c-0.9,1-2,1.8-3.1,2.5L6.1,30.6
					C4.2,31.6,3,33.6,3,35.9c0,1.6,0.6,3.1,1.7,4.2c0.4,0.5,0.9,0.8,1.5,1.1l2.2,1.3l31,17.9l-9.5-2.4l-6.2,15.6L27.5,75.9z"/>
			</defs>
			<use xlink:href="#SVGID_1_"  style="overflow:visible;fill:#FFFFFF;"/>
			<clipPath id="SVGID_2_">
				<use xlink:href="#SVGID_1_"  style="overflow:visible;"/>
			</clipPath>
		</g>
	</g>
</g>
</svg>
